<mxfile host="app.diagrams.net" agent="Mozilla/5.0 (Windows NT 10.0; Win64; x64) AppleWebKit/537.36 (KHTML, like Gecko) Chrome/134.0.0.0 Safari/537.36 Edg/134.0.0.0" version="26.1.0">
  <diagram name="Page-1" id="tUTU-7wGbKY3et12cANm">
    <mxGraphModel dx="873" dy="506" grid="1" gridSize="10" guides="1" tooltips="1" connect="1" arrows="1" fold="1" page="1" pageScale="1" pageWidth="827" pageHeight="1169" math="0" shadow="0">
      <root>
        <mxCell id="0" />
        <mxCell id="1" parent="0" />
        <mxCell id="LLp4dyBOCXoPaBjdoCmS-2" value="" style="rounded=0;whiteSpace=wrap;html=1;fillColor=none;strokeWidth=2;dashed=1;" vertex="1" parent="1">
          <mxGeometry x="90" y="128.31" width="610" height="300" as="geometry" />
        </mxCell>
        <mxCell id="LLp4dyBOCXoPaBjdoCmS-5" style="edgeStyle=orthogonalEdgeStyle;rounded=0;orthogonalLoop=1;jettySize=auto;html=1;entryX=0;entryY=0.5;entryDx=0;entryDy=0;" edge="1" parent="1" source="LLp4dyBOCXoPaBjdoCmS-3" target="LLp4dyBOCXoPaBjdoCmS-4">
          <mxGeometry relative="1" as="geometry" />
        </mxCell>
        <mxCell id="LLp4dyBOCXoPaBjdoCmS-3" value="Looker" style="sketch=0;html=1;verticalAlign=top;labelPosition=center;verticalLabelPosition=bottom;align=center;spacingTop=-6;fontSize=11;fontStyle=1;fontColor=#999999;shape=image;aspect=fixed;imageAspect=0;image=data:image/svg+xml,PHN2ZyB4bWxucz0iaHR0cDovL3d3dy53My5vcmcvMjAwMC9zdmciIGlkPSJzdmc4OTgwMSIgdmVyc2lvbj0iMS4xIiB2aWV3Qm94PSIwIDAgMjA4LjA1NjU1IDMzNC42MTMxNiIgaGVpZ2h0PSIzMzQuNjEzMTZtbSIgd2lkdGg9IjIwOC4wNTY1NW1tIj4mI3hhOyAgJiN4YTsgIDxkZWZzIGlkPSJkZWZzODk3OTgiLz4mI3hhOyAgPGcgdHJhbnNmb3JtPSJ0cmFuc2xhdGUoLTQuMjQ2MjUyNCwxNS42NzE5MTEpIiBpZD0ibGF5ZXIxIj4mI3hhOyAgICA8cGF0aCBpZD0icGF0aDkxODAyIiB0cmFuc2Zvcm09InNjYWxlKDAuMjY0NTgzMzMpIiBkPSJtIDQwOS4yMjI2Niw0MTkuMDk5NjEgYyAtMzYuNjA4MTEsMCAtNzIuMDc2NjcsNS4wNzUzIC0xMDUuNzUzOTEsMTQuNTMxMjUgbCA0OS4wMzUxNiwxMjAuMDQxMDIgYyAxOC4yNjE3MiwtMy45Mzg5OSAzNy4yMjE5NiwtNi4wNjgzNiA1Ni43MTg3NSwtNi4wNjgzNiAxNDYuOTM1MTQsMCAyNjQuNjc3NzMsMTE3LjczNDc3IDI2NC42Nzc3MywyNjQuNjY5OTIgMCwxNDYuOTM1MTQgLTExNy43NDI1OSwyNjQuNjY5OTYgLTI2NC42Nzc3MywyNjQuNjY5OTYgLTE0Ni45MzUxNiwwIC0yNjQuNjY5OTEsLTExNy43MzQ4MiAtMjY0LjY2OTkzLC0yNjQuNjY5OTYgMCwtOTkuMTg3NjMgNTMuNjg5ODMsLTE4NS4wMDU5NiAxMzMuNzU1ODYsLTIzMC4zNDc2NiBMIDIyOS42MjY5NSw0NjIuNzUgQyAxMDMuMDI0Nyw1MjguMjI0NzQgMTYuMDQ4ODI3LDY2MC41MDUyMyAxNi4wNDg4MjgsODEyLjI3MzQ0IGMgMi4zZS01LDIxNi4zODM3NiAxNzYuNzkwMDYyLDM5My4xNzM4NiAzOTMuMTczODMyLDM5My4xNzM4NiAyMTYuMzgzNzMsMCAzOTMuMTgxNjQsLTE3Ni43OTAxIDM5My4xODE2NCwtMzkzLjE3Mzg2IDNlLTUsLTIxNi4zODM3OCAtMTc2Ljc5Nzg3LC0zOTMuMTczODMgLTM5My4xODE2NCwtMzkzLjE3MzgzIHoiIHN0eWxlPSJjb2xvcjojMDAwMDAwO29wYWNpdHk6MTtmaWxsOiM1OTg2ZjI7ZmlsbC1vcGFjaXR5OjE7c3Ryb2tlLXdpZHRoOjMuNzc5NTM7c3Ryb2tlLWxpbmVqb2luOnJvdW5kOy1pbmtzY2FwZS1zdHJva2U6bm9uZSIvPiYjeGE7ICAgIDxwYXRoIGQ9Im0gMTg5Ljk0MzM2LDg2LjI1IGMgLTk1LjEzMDMzMSwwIC0xNzMuMTc5Njg4LDc4LjA1NTIyIC0xNzMuMTc5Njg4LDE3My4xODU1NSAtNmUtNiw5NS4xMzAzMyA3OC4wNDkzNTMsMTczLjE3OTY4IDE3My4xNzk2ODgsMTczLjE3OTY4IDkuMDE2MTgsMCAxNy44NzU4LC0wLjcwODMyIDI2LjUzMzIsLTIuMDU4NTkgbCAtMzQuODI4MTIsLTg1LjI2NTYyIGMgLTQ0LjE1NzMsLTQuMDg2NjkgLTc3Ljk1NTA4LC00MC41MDcwNSAtNzcuOTU1MDgsLTg1Ljg1NTQ3IDAsLTQ4LjE1MDM5IDM4LjA5OTYyLC04Ni4yNTU4NiA4Ni4yNSwtODYuMjU1ODYgMTMuMTU5NzcsMCAyNS41NTg4OCwyLjg2MjQ2IDM2LjY0NDUzLDcuOTgyNDIgbCA2NC41NTQ2OSwtNjEuOTE5OTIgQyAyNjIuNjA4MzcsOTguNTMzOTEgMjI3LjYyOTI5LDg2LjI1IDE4OS45NDMzNiw4Ni4yNSBaIG0gMTM4Ljg4ODY3LDcwLjE2MjExIC02My40Mjc3Myw2MC44MzU5NCBjIDYuODc2MzgsMTIuNDI2NzggMTAuNzg5MDYsMjYuNzg4MTUgMTAuNzg5MDYsNDIuMTg3NSAwLDIxLjc2NzEyIC03LjgwNDE1LDQxLjQ2NTQgLTIwLjc4NTE2LDU2LjUzMzIgbCAzNC41MjM0NCw4NC41MTk1MyBjIDQ0LjE3Mzg3LC0zMS40ODc1MSA3My4xOTE0MSwtODMuMDc4OTIgNzMuMTkxNDEsLTE0MS4wNTI3MyAwLC0zOC40ODM1NSAtMTIuNzgyLC03NC4xNjUzMiAtMzQuMjkxMDIsLTEwMy4wMjM0NCB6IiB0cmFuc2Zvcm09InNjYWxlKDAuMjY0NTgzMzMpIiBzdHlsZT0iY29sb3I6IzAwMDAwMDtvcGFjaXR5OjE7ZmlsbDojNmY5OGY0O2ZpbGwtb3BhY2l0eToxO3N0cm9rZS13aWR0aDozLjc3OTUzO3N0cm9rZS1saW5lam9pbjpyb3VuZDstaW5rc2NhcGUtc3Ryb2tlOm5vbmUiIGlkPSJwYXRoOTE3OTgiLz4mI3hhOyAgICA8cGF0aCBpZD0icGF0aDg5OTI4IiB0cmFuc2Zvcm09InNjYWxlKDAuMjY0NTgzMzMpIiBkPSJtIDQwNi4xMzY3MiwtNTkuMjMyNDIyIGMgLTU4LjgxNTQ3LDhlLTYgLTEwNy4xMDM1Miw0OC4yODgwNDUgLTEwNy4xMDM1MiwxMDcuMTAzNTE2IDAsMTguNDk0NDUxIDQuNzgxMDEsMzUuOTQ1MDE3IDEzLjE1NjI1LDUxLjE4MzU5NCBsIDQ0LjMxMjUsLTQyLjUwMzkwNyBjIC0wLjQ3NTY3LC0yLjgyMDc3NSAtMC43NzUzOSwtNS43MDc1NjQgLTAuNzc1MzksLTguNjc5Njg3IDAsLTI4LjE3NjM4IDIyLjIzMzc4LC01MC40MTAxNTI1IDUwLjQxMDE2LC01MC40MTAxNTY1IDI4LjE3NjM4LC00ZS02IDUwLjQxMDE1LDIyLjIzMzc3MDUgNTAuNDEwMTYsNTAuNDEwMTU2NSAwLDI4LjE3NjM4MSAtMjIuMjMzNzgsNTAuNDEyMTEzIC01MC40MTAxNiw1MC40MTIxMDkgLTUuMDY4NjksLTEwZS03IC05LjkzNDE3LC0wLjc0NTYzMSAtMTQuNTIzNDQsLTIuMDg5ODQ0IGwgLTQzLjM2MTMzLDQxLjU5MTgwMSBjIDE2LjczMjIzLDEwLjg0Nzk1IDM2LjYxMTIzLDE3LjE4OTQ1IDU3Ljg4NDc3LDE3LjE4OTQ1IDU4LjgxNTQ5LDEwZS02IDEwNy4xMDM1MSwtNDguMjg4MDQgMTA3LjEwMzUxLC0xMDcuMTAzNTE2IDAsLTU4LjgxNTQ4MyAtNDguMjg4MDIsLTEwNy4xMDM1MjMgLTEwNy4xMDM1MSwtMTA3LjEwMzUxNiB6IiBzdHlsZT0iY29sb3I6IzAwMDAwMDtvcGFjaXR5OjE7ZmlsbDojZDZlM2ZiO2ZpbGwtb3BhY2l0eToxO3N0cm9rZS13aWR0aDozLjc3OTUzO3N0cm9rZS1saW5lam9pbjpyb3VuZDstaW5rc2NhcGUtc3Ryb2tlOm5vbmUiLz4mI3hhOyAgPC9nPiYjeGE7PC9zdmc+;" vertex="1" parent="1">
          <mxGeometry x="199" y="245.81" width="40" height="64.62" as="geometry" />
        </mxCell>
        <mxCell id="LLp4dyBOCXoPaBjdoCmS-7" style="edgeStyle=orthogonalEdgeStyle;rounded=0;orthogonalLoop=1;jettySize=auto;html=1;" edge="1" parent="1" source="LLp4dyBOCXoPaBjdoCmS-4" target="LLp4dyBOCXoPaBjdoCmS-6">
          <mxGeometry relative="1" as="geometry" />
        </mxCell>
        <mxCell id="LLp4dyBOCXoPaBjdoCmS-4" value="" style="shape=image;html=1;verticalAlign=top;verticalLabelPosition=bottom;labelBackgroundColor=#ffffff;imageAspect=0;aspect=fixed;image=https://cdn3.iconfinder.com/data/icons/document-icons-2/30/647702-excel-128.png" vertex="1" parent="1">
          <mxGeometry x="349" y="244.31" width="68" height="68" as="geometry" />
        </mxCell>
        <mxCell id="LLp4dyBOCXoPaBjdoCmS-6" value="" style="image;sketch=0;aspect=fixed;html=1;points=[];align=center;fontSize=12;image=img/lib/mscae/Azure_Database_for_PostgreSQL_servers.svg;" vertex="1" parent="1">
          <mxGeometry x="539" y="243.93" width="51.97" height="68.38" as="geometry" />
        </mxCell>
        <mxCell id="LLp4dyBOCXoPaBjdoCmS-10" value="" style="rounded=1;whiteSpace=wrap;html=1;dashed=1;dashPattern=12 12;fillColor=none;strokeColor=default;" vertex="1" parent="1">
          <mxGeometry x="140" y="190" width="241" height="170" as="geometry" />
        </mxCell>
        <mxCell id="LLp4dyBOCXoPaBjdoCmS-13" value="" style="rounded=1;whiteSpace=wrap;html=1;dashed=1;dashPattern=12 12;fillColor=none;" vertex="1" parent="1">
          <mxGeometry x="400" y="193.12" width="241" height="170" as="geometry" />
        </mxCell>
        <mxCell id="LLp4dyBOCXoPaBjdoCmS-14" value="Cloud&#xa;Scheduler" style="sketch=0;html=1;verticalAlign=top;labelPosition=center;verticalLabelPosition=bottom;align=center;spacingTop=-6;fontSize=11;fontStyle=1;fontColor=#999999;shape=image;aspect=fixed;imageAspect=0;image=data:image/svg+xml,PHN2ZyB4bWxucz0iaHR0cDovL3d3dy53My5vcmcvMjAwMC9zdmciIHhtbG5zOnY9Imh0dHBzOi8vdmVjdGEuaW8vbmFubyIgd2lkdGg9IjM2MC4zMDM3NjY4NjA4MzYzIiBoZWlnaHQ9IjM3OC4wNTExNTgwNzc0MDg4IiB2aWV3Qm94PSItMC4wMDAxNjI0MjExNDM2MTM3NTU3IC0wLjAwMDEwMDAwNTk0OTIwNzExNTkyIDk1LjMzMDI2MTIzMDQ2ODc1IDEwMC4wMjYxMDAxNTg2OTE0Ij4mI3hhOzxzdHlsZSB0eXBlPSJ0ZXh0L2NzcyI+JiN4YTsJLnN0MHtmaWxsOiM0Mjg1ZjQ7fSYjeGE7CS5zdDF7ZmlsbDojYWVjYmZhO30mI3hhOwkuc3Qye2ZpbGw6IzY2OWRmNjt9JiN4YTs8L3N0eWxlPiYjeGE7CTxwYXRoIGNsYXNzPSJzdDAiIGQ9Ik03OS45NzEgNzcuNzE1bC03LjM1OSA3LjQ4OCA4LjYzOSA4LjQ5IDcuMzU5LTcuNDg4em0tNjUuMDk2LjA2MWwtOC42NDEgOC40OTIgNy4zNjEgNy40ODggOC42MzktOC40OXoiLz4mI3hhOwk8cGF0aCBjbGFzcz0ic3QxIiBkPSJNNzkuNTUzLjIyMWE1LjI1IDUuMjUgMCAwIDAtMy42NiA4Ljk4NEw4Ni4zODkgMTkuNThhNS4yNSA1LjI1IDAgMCAwIDguOTQxLTMuNzY1IDUuMjUgNS4yNSAwIDAgMC0xLjU2LTMuNzA0TDgzLjI3NSAxLjczOEE1LjI1IDUuMjUgMCAwIDAgNzkuNTUzLjIyMXpNMTUuOTE2IDBhNS4yNSA1LjI1IDAgMCAwLTMuNzIzIDEuNTE2TDEuNjk5IDExLjg5MWE1LjI1IDUuMjUgMCAwIDAtLjA0MyA3LjQyNCA1LjI1IDUuMjUgMCAwIDAgNy40MjQuMDQzTDE5LjU3NiA4Ljk4MkE1LjI1IDUuMjUgMCAwIDAgMTUuOTE2IDB6Ii8+JiN4YTsJPHBhdGggY2xhc3M9InN0MCIgZD0iTTQ4LjEzOCAyNi4yNGMxMy4zNDcgMCAyNS40MzIgMTEuMTM2IDI1LjMxIDI2LjQ4MSAwIDE1LjExLTEyLjI2NyAyNS42NzMtMjUuMTg5IDI1LjY3My0xMS4xNDkgMC0xOC4zMTctNS4xNzEtMjEuOTYtMTAuNzM4bDIxLjgzOS0xNS4wOTd6Ii8+JiN4YTsJPHBhdGggY2xhc3M9InN0MiIgZD0iTTgxLjI1IDkzLjY5M2w0LjY2NCA0LjU4NmE1LjI1IDUuMjUgMCAxIDAgNy4zNjEtNy40OWwtNC42NjYtNC41ODR6TTYuMjM0IDg2LjI2OEwxLjU3IDkwLjg1MWE1LjI1IDUuMjUgMCAwIDAtLjA2NSA3LjQyNCA1LjI1IDUuMjUgMCAwIDAgNy40MjQuMDY0bDQuNjY2LTQuNTg0ek00Ny4zNzEgNS41NzhDMjEuMzQ5IDUuNTc4LjE0NiAyNi43NzkuMTQ2IDUyLjgwMXMyMS4yMDMgNDcuMjI1IDQ3LjIyNSA0Ny4yMjUgNDcuMjI1LTIxLjIwMyA0Ny4yMjUtNDcuMjI1UzczLjM5MyA1LjU3OCA0Ny4zNzEgNS41Nzh6bTAgMTBhMzcuMTUgMzcuMTUgMCAwIDEgMzcuMjI1IDM3LjIyM2MwIDIwLjYxNy0xNi42MDcgMzcuMjI1LTM3LjIyNSAzNy4yMjVTMTAuMTQ2IDczLjQxOCAxMC4xNDYgNTIuODAxYTM3LjE1IDM3LjE1IDAgMCAxIDM3LjIyNS0zNy4yMjN6Ii8+JiN4YTs8L3N2Zz4=;" vertex="1" parent="1">
          <mxGeometry x="140" y="180" width="22.02" height="23.12" as="geometry" />
        </mxCell>
        <mxCell id="LLp4dyBOCXoPaBjdoCmS-16" value="" style="shape=image;verticalLabelPosition=bottom;labelBackgroundColor=default;verticalAlign=top;aspect=fixed;imageAspect=0;image=data:image/png,/9j/4AAQSkZJRgABAQAAAQABAAD/7QBmUGhvdG9zaG9wIDMuMAA4QklNBAQAAAAAAEkcAVoAAxslRxwCAAACAAAcAnQANcKpIHJtYWlsbGV5IC0gaHR0cDovL3d3dy5yZWRidWJibGUuY29tL3Blb3BsZS9ybWFpbGxlAP/bAEMAAwICAwICAwMDAwQDAwQFCAUFBAQFCgcHBggMCgwMCwoLCw0OEhANDhEOCwsQFhARExQVFRUMDxcYFhQYEhQVFP/bAEMBAwQEBQQFCQUFCRQNCw0UFBQUFBQUFBQUFBQUFBQUFBQUFBQUFBQUFBQUFBQUFBQUFBQUFBQUFBQUFBQUFBQUFP/CABEIA+gC7gMBIgACEQEDEQH/xAAcAAEAAQUBAQAAAAAAAAAAAAAABgMEBQcIAQL/xAAcAQEAAQUBAQAAAAAAAAAAAAAABgIDBAUHAQj/2gAMAwEAAhADEAAAAeoAAAAAAAAAAAAAAAAAAAAAAAAAAAAAAAAAAAAAAAAAAAAAAAAAAAAAAAAAAAAAAAAAAAAAAAAAAAAAAAAAAAAAAAAAAAAAAAAAAAAAAAAAAAAAAAAAAAAAAAAAAAAAAAAAAAAAAAAAAAAAAAAAAAAAAAAAAAAAAAAAAAAAAAAAAAAAAAAAAAAAAAAAAAAAAAAAAAAAAAAAAAAAAAAAAAAAAAAAAAAAAAAAAAAAAAAAAAAAAAAAAAAAAAAAAAAAAAAAAAAAAAAAAAAAAAAAAAAAAAAAAAAAAAAAAAAAAAAAAAAAAAAAAAAAAAAAAAAAAAAAAAAAAAAAAAAAAAAAAAAAAAAAAAAAAAAAAAAAAAAAAAAAAAAAAAAAAAAAAAAAAAAAAAAAAAAAAAAAAAAAAAAAAAAAAAAAAAAAAAAAAAAAEKw2LtNnNae+V7Ka6re0T9Bq1VuZonc1W5Gwl7XZvnn1XZ8AAAAAAAAAAAAAAAAAAAAAAAAAAAAAAAAAAAYvy5i5UW8oAADlTF9Kc6xXrNqMLdgAAPn6FO6ojK38bXMaZ5HXa7jbYymk13D6Cy/My9hdbXPH2SyNf1e5ukGRrd4tYSXK1UqU6mRrQ9AAAAAAAAAAAAAAAAAAAAAAAAAMH9aU2MTZXAZ/e823gIj3UAABGJOovcmWfTPOkY6nYjC3YAAAAAAAAAAH1J4srsbXmPO7N0nXNbkWZ58f6Ha2n2yjV2L2EAAAAAAAAAAAAAAAAAAAAAxHulNhFvLIknJEijsks526xEe7AAAAI/IFF3lHHdQ83xnqWOGDvQAAAAAAAAAAAAFWkebC2dzf5n6DsBzPt7cwudDPj4AAAAAAAAAAAAAAAAADF/WlM+MU7EkvIg9oSWNSqxs9yiI90AAAAAYLOqbnKmL6m5vjPUMSMCQAAAAAAAAAAAAAAASvd/Mv1naHr1prcUh5z9jI14AAAAAAAAAAAAAADH/Wk86OfGNJLx8KrYCYQ+a42420In28AAAAABh8wpr5Yw/VfOEa6fgxr5EAAAAAAAAAAAAAAAlcUV2Or8hy10dJeY5cZ+gAAAAAAAAAAAAAWXuk82OsQSbj4VWgAE5g2wMTe7PEV7UAAAAAAAxuSU1cu4Lq3nON9Ojw10kAAAAAAAAAAAAAAAZjDqrfVWV5j6KkvLskNhoAAAAAAAAAAAFr7pXMj/mEJPx4KrIAADY+uNn4Mj2AIx2QAAAAAAABY3zyrmOOdY86RvpkZGtkwAAAAAAAAAAAAAACdQW9qsdPZTR23ZLy/KDYaIAAAAAAAABQaZy9F8x8k/HQrxwAAAG2NT7h10slwjfWwAAAAAAAAFrdPPea4p1tzpHOlRQayUgAAAAAAAAAAAAAATXLxKSXNZuTMaK25Iue5kbHQAAAAAAAKPunMrSU44SjjYV44AAAADdmk98aqbZcR/qIAAAAAAAAAC2uXnvN8Q6555jvSIYNXKwAAAAAAAAAAAAAL+aa+2DVhq9BXibgzmiNsyCB54bKPAAAAAKfuoMnT0ouSjjQXMUAAAAAB0Hz90Zpeg+jSdGAAAAAAAAAAAUazz3naE9d6Aj/AEWBjUy4AAAAAAAAAAAABPYFN6sW8FWGq0nrb2e0PtXfwSRjZxwAAB8tRZOo8iBKONBcxAAAAAAAMhv/AEhu/QdPDUzgAAAAAAAAAAAB8fY59gXXmhY/0TXo1EwAAAAAAAAAAAATWFTarGvRVhAPv4G2JJoXae/g0nG0jQDxqjI1XzCiUcaC7hAAAAAAAATHb2tNlxrr4a+UAAAAAAAAAAAAAPn6Ghtc9e6M0HQdajTzMAAAAAAAAAABOoLsCrF+xVhgAPfBtOU6E2jvoRKjV+8gvxAyUcZC9ggAAAAAAAAbXnEckcS7kGPtQAAAAAAAAAAAAAANIwHbWv8AdaWxpZNIIdH7KW28W6JGl3ac/wC3Bj5oAAAAAAFWfQuaVYYVYoAAD3wZyIZCw6F83+CTcqAAAAAAAAAF75Xva8IZ9Ah5WAAAAAAAAAAAAAA1dW1xLefhKYKAAxWVa3fRJIMBx36l8GmlYAAAAAGblGFzVevD2yAAAB5jshj5twjwTLiIAAAAAAAACURfYmLutliKdtAAAAAAAAAAAAAAa1q6ylcDCVwEAAABa3TGz4p8yGP8W+sfBpJcAAAAK7yY3Zc1YPAAAB81W6Fr9fPV/kAM+OgAAAAAAAANxad6D1U2vBH+ogAAAAAAAAAAAANffWrJTBQlvPwAAAAAGOyPuDt4iyeM4d9fBg7kAABmsLLfbOWFevAAAAWdS0mnDAmnDQAAAAAAAAAMxvfV20Y51gNbLwAAAAAAAAAAAEG91NJoT4JhzsAAAAAAABG5JRjk6jD6+eLfWQeVAAfU+istqwgqxgAAFJZSXlrw6H82g8AAAAAAAAAFx5Vt+UU6kP72FvKAAAAAAAAAAAQqpqCSQzzwmXOQeAAAAAAAAAYzCy2Ocv8Aoa1EC7QAKryU5Xz25rAUgAKPzay3jvvyTr5+D2kAAAAAAAAABNIXufBksoEY7EAAAAAAAAAAAiFTSEjh91Tj+PnUBkdphV6/kqVkquXa0e+3tTHPPMtcYF5TJ7qHLdqaIne0Wc+x19asfYpoAAW9wsZsSZHHcG+ywwtsz+AnPti6FeAAKV7D+7Wn8Tz55CTcsAAAAAAAAAAAAyO/Nf7CjnWQ1suAAAAAAAAAARH45zk0ZvMUdAgoVegAAAAAAPfBf5GPrdmY/cMyFnGkaxvrOKFNNOMSvDQTsWLHLfozJzDGZOvXh7ZeUbaQ82q0PE7+fQzNKAAAAAAAAAAAAuLfY9jZz+5Il3IPKgAAAAAAAAERyPMci0FO2OiwAPfAAAAAAAAAAAFai88zmUh/1ZxplTwmG02YvIm5F9E7uRGQU41zbUkz4aG5g4AAAAAAAAAAAAAF/vmLy+N9cDXSsAAAAAAAABRraTz8GDx06pzMLtoAAAAAAAAAAAAAe+EdmeI5/IMAIx0DN7AxEgk/HLYZ0aAAAAAAAAAAAAAATPC7v1cyriPdVAAAAAAAAAAjnL80hHS+dhvdIAAAAAAAAAAAAAXWcjuPiszcOY65TqY3SUYC+8Zm+2QxGX6RE6Vlkl6nBfOdtPKsar0PKgAAAAAAAAAAGSbrwJN9ZAjXXQ8uAAAAAAAAAIlLedtxqoEOoc1AAAAAAAAAAAAF5jU2ubvq/MNb56QvDA8j+UxFzNCrKvJ3riWSbX5wTDVgKVUWFrmXnuAZu28qxq6oeVfAAAAAAD6unlpl7zbOFIWSIz2EKbwAAAAAAAAAGG5U3Bp3okBCSR4AAAAAAAAAAB79SHR2bTMnINSGutgCi9xNuXtoCpWoqvNiVItKej6EM20AAABSpXTxYUsoe4j5zJ7hfcyMR95QWFe4PPLnzaeFIPvJkX7KFN4AAAAAAAAAARi7a57wh1/lIXLYAAAAAAAAACsk0Xxvm4OQakLXgADGZOP1ZFMXM8ABOYNd7XGnr5+ugaQPQAAAAAAACt5tHD333lyLdnCi+AAAAAAAAAAA01uXmKRaGLDo3PgAAAAAAAAAFX4k0esVKxxjThb8AAAt8HkMfc2AVXwAAM9KtbzCW6zMCU64AAAAAABV+do4e99zZFuzBRkgAAAAAAAAAAAWfI3RHO09g4SuMAAAAAAAAAC7x6cllThOkDBoAAAFJ7haRe2oPQAAH38PfJ1fa+nE709yN1iAAAAAPvzZ2Juvc+RbtAW8oAAAAAAAAAAAADSmpJjDuq8yDZ60AAAAAAAABJMBLefYIc01oAAACxvsT7esRd2IAAAAC6tVfmwLiATSd6a7G4xQAAHrZWLuPZIRXtIW8sAAAAAAAAAAAAAYOujl+1OyclD2kAAAAAAAAC/kcXlHKNWEKwwAAAGBzscrygrzQAAAAAFSmq8mWW1vm5XrZaoV5Prwq8e+bFxttVkxFe1BazAAAAAAAAAAAAAAECnuotprdLDqnMgAAAAAAAAB6e7Sk+y+cSrmtsDX/PYGFGCAABRwOawtzOCrJAAAAAAAA+szhGTblv1EGzx8xuPQn1rt51s13sTYdPCvJAAAAAAAAAAAAAAaE33zTJI/Dx0SAAAAAAAAAAe74o7Tg01CISpqzaazrea2xddaTkIUYAAFliMrirmwCq+AAAAAAAAAAB7vDR3tzY9btZ7M23TAuZYAAAAAAAAAAAADk/q7juYxMJvDAAAAAAAAG8PnbEImYQ6WAANabLWtfzW2brLSchC3rgMfi8rirmwCq+AAAAAAAAAAAA3Rpdcz+uGrto7bpwXMsAAAAAAAAAAADEcodNcyz2EBK4uAAAAAAA3J87khcwCFy8AAABr3YS3g81tp6s0fIAt62zw+dwVzOCrJAAAAAAAAAAAAA83BqDy5ndctRbd23TQuZoAAAAAAAAAAEB533vojo0ACRR8AAAAABtr43fDZcEJmIAAAAACBT1bwubPNt6l0nIfiOyTB04tuK80AAAAAAAAAAAAADza+qVeZ1w0xufbdNC7ngAAAAAAAAAaf0ztrUvT+cBudOAAAAA2ta75h8s9EHmYAAAAAAACETdbw+bcbvPTel5LHHvikAAAAAAAAAAAAAABs/WCvL64aQ3dtunei7ngAAAAAAAAaE1psDX/VuYhstcAAAA2VR6AiUpfRBJsAAAAAAAAAAh8wUYvLWM6J5+1HL7cW8EAAAAAAAAAAAAAABsXXSvK6390TvPa9N+xe2IAAAAAAAHNsLlkT63ywM3DAAAbB86DikofZApsD0AAAAAAAAAABDpiox+TKXQ+gNVzS3FnVAAAAAAAAAAAAAAAJ5A1WT1r96C31tum/YvbIAAAAAADluO5nDdg5OGRYAATjzomLyX6qHP5yD0AAAAAAAAAAAABGZMptctYzqnR2s5/BxjRwAAAAAAAAAAAAAABNoSqyOsq3PPQG16ZWF/aAAAAAD05Mxd5Z9k5KFy0AmVPo+MyP6rnPp2HnoAAAAAAAAAAAAAAAEB011HSxY/yY3PqvAhOMFrWgAAAAAAAAAAAAAJhD1V/rC45y6F2vS7gX9sAAAA9898cfUfPe0chD3xLqHSsbkXtyc8ngeegAAAAAAAAAAAAAAAAAKdQ819rXotjaTkd1Br/EjGn0mjONoA8sgAAAAAAAAAAAJVFVV7q+55t6F2nS70ZG3AAAe+eHHH18/XaOQpNT6Vju+9vjnc+CmoAAAAAAAAAAAAAAAAAAAAABj8g8p17EN4rGo5iwnXFlY0/KjoWOWdTp1sLAWtbHFe3t4PoeAAAAAAAAJHHHt3qu95o6G2vSsiMjcgAPn6POOc/veQTiHfOSITMApqAAAAAAAAAAAAAAAAAAAAAAAAAAAAYzJvKYnidhLeFqjGbqW8PQeP6MUYvMdj1UpxuR/OurWmxyg6jt6bPMjpG38tc7OhKHlGgm9qflvRreHx55pKfyuWXM6RDZToAAAAAAAAAAAAAAAAAAAAAAAAAAAAAAAAAAAAAAAAAAAAAAAAAAAAAAAAAAAAAAAAAAAAAAAAAAAAAAAAAAAAAAAAAAAAAAAAAAAAAAAAAAAAAAAAAAAAAAAAAAAAAAAAAAAAAAAAAAAAAAAAAAAAAAAAAAAAAAAAAAAAAAAAAAAAAAAAAAAAAAAAAAAAAAAAAAAAAAAAAAAAAAAAAAAAAAAAAAAAAAAAAAAAAAAAAAAAAAAAAAAAAAAAAAAAAAAAAAAAAAAAAAAAAAAAAAAAAAAAAAAAAAAAAAAAAAAAAAAAAAAAAAAAAAAAAAAAAAAAAAAAAAAAAAAAAAAAAAAAAAAAAAAAAAAAAAAAAAAAAAAAAAAAAAAAAAAAAAAAAAAAAAAAAAAAAAAAAAAAAAAAAAAAAAAAAAAAAAAAAAAAAAAAAAAAAAAAAAAAAAAAAAAAAAAAAAAAAAAAAAAAAAAAAAD//EADIQAAAFAwIFAgUDBQEAAAAAAAECAwQFAAZAETASExQgUBAxBxUWISIyMzUjJTRgoCT/2gAIAQEAAQUC/wCv6Vu1nFOPr9lX18woL+YDQX3HV9cRlBekSNfWMRRbriTUW44s1BORw0R82UoPyrT/AEd7JN48GUm2kNmVRUQk9rhCuWWiLKJ0WWfEpO5JVOk7xliUS+5EtE+IKoUn8QGw0le8WekrlilqRcpOA85KyqcYi5cqO1oE4kldift9GbRdNVWTjE4QpGRdt6Ru2WRpC/nZaQv5oam90RTik1CrF8rKSicYi5cqO1qgf5bZnYJKabu2irFxkpmFEzW6JRrTW/1QppeUW5pFZNwn5CSkk4xB47UfL+lv/wAvtTkEjNN3rJaPc5iKp252d5STWmV9slqbO0XhPGSUklGoPHir5f1t3+Y25qFQmmr9gvGOs5JU6Ckfez5rUbdUfI+KkJBOObvHir5fstz+Y3JmGQmmshHrxjrwEZcj+LqLvBjIeHfv0o9B+/UkHHbbIay27MQ6Ey1ko1eKdeBiLleRFRFwNJkvg3z5Jgg/fqyC/dawaym9KxSEu1k4xeJdeBKIkNB3qJaIcqhPAPHibFCRkVJJx32l/I78pFIS7aVil4h14KCuJeEOxfoSTbOePEmKElJKyS+xaIf+7AkY1CVazEOvCuvBRMu4hnMXKISzXMdOk2aElJKya+zaBf6+DIR6Eo1mIdeFdeCipVaIdRskjKNcpy5TaIysopJr7VnYchHoSbWahVoVz4KDllYt0wfpSCOQ4cJtUZWVUk1tu0C/0MN6yRkG03CLQrnwULJKo1HyCcihjLLEbpS8seTW3LSD+34jxkjIN52CWhF/As1uQu1dKMl4+QTkUcRZYjdKYmDyau7axOGLxXLVJ43n7fVg1/Aslec3bOVGisbJpyKWEqqRBOYmDyau9boaQ+M5bJO0J+31YRfwESp+VILnbKxkmSRSwFFCpEmpk0kpvxBOCMx3DdN2hcFuqQquexPwOvRBc7ZWMlU5FPeOcqZJqaNInwGZOWzyFkSOErit08MrnFNwm9UlToKRUqSST3DGAhZyaGQPgFDiH2ylkSOErjts8OpnIjqj6pKnQUipYkintGMBCzk4L82DHE43+WchVCXLbJog2a0/xuxNQ6KkRLlkCbAiBQnJwX5sKAJxy+YYhVC3LbJok2Yy/wAXtIcyZ4iXLIE7hHQJ6c6scO1ScUnmmKBy3Na4xY5bP/F7iHMmaImSvi9s7O9UOJZ6f55wgAhc9sDHDlNg0b94CJRhpkHwes/O9QOLaSejHPEAELmtYWGUQOEmwAiUYaZB8FT09zse3k+XEeBui1ekpJkJg6JKjMC0o0UJiJF4lNoBEovZ5y4ZY7NLkNPAz8/z+1VAi1LNzI4TEvE62ze2MyS57zwNwT3O2F2eDFF1V2x9hxraR5st4C4J7XacNgWoQ0HeiiaI7Zh0DGtBH88+fn9xdAFgMAlHdak5bfbUNj2wjyovOuGe4N5w3BYNxBPmq7YjoAjqOMzR6Zrm3BP8nAdt+YG3Fp8S22obXHiEOpks24J7kYTtvw7canwN9pQ+mRaLficZk/PdLh6a0ujyT7BSicxSgQuyc2gZFttuni8uenukr3xFUgVIICUe+MT43Gyc/DWuuQ3RFwumQEiZU/O9CHvjPUdQ745Llt9gx9KEdcm1WvNf5U7OAwKIiYcdwjyVO1JPmqAGgd51Mu3GnSxuTOzgR5DGExjGAoGfJFo0jQv1BoXi1dUrXVK11iwUD5WgkTUEiWivEjUU5T7i6XOT7YpL79wjpRlNcuPaC9eAAFDIm5ssaRw8KUyj5Q9CImHcK4UJRJA4UR8mainKfZeJcJ+xslyUe0x9KE2uZabLhJkT8+lDpOpFV0fCAdKI9VJSb8hqKcpw7VCAoQQEo+kejzXHYI6UZSvfMboGcrNm5WrfHuK4k4RFw4UdLYwDpSb5QlJvE1O16loPpHo8pv6mUoTa51qx2RcNwpQiDhwo7Xyk1jpUnIURQqgUoQFCGdJlFkdJy49DH0oTiOexaHfOUUSN0saZl0oZk8dqv3OaAiUU35i1KP8AqDekHImWTMoI+BtyL6JtjLLEbpTsweafeAN+r0hv5DwFuRPVrY98TfNU8AkxOapRh05vSCihTSOgYufFRp5NwiiRuljT8sEPGmMY5s5FkdSkkCI+hzcJDM0jCwTRaOfQyZT0ZsIUICGWwYKyC7Fkmwb492y3zOUzUW51qRakR7HZ/WNX5qHqIANGbANGRMXIYR6sguwYJR6GPdEr8qicwpRMKLEA7RHQDm4zejRfp1u4yZTUZrRkjFxGUao8WYME49HIvOS66Xy0GxlqSSKiHa6PoTsi3HMT2DJlNQtgoW5goSiG6BRNRWwjTNkZwqxYpsEciYkAi40REw5SDLYXPxqdiKooKkOChNsUyjQti0LWumNXIPXJPXKPXKPXIPQNjUDWgQIFe1N253KrBgmwRyb/AJD75JCCczdqCOwqfgJ3RbnhNjoIHcqx0eRgllTT75lKZCSRljIoFRLsOzd/tTJz1KOKiidwpHRxGCWVcr7oIXISSMsdJIqJdlQ3GfvauBbKlMBi4aSRllIyNLHp5fxBeffHTTFUySRUS7K5uFLZjHfAbCSSMspGRhWCeZc7zrZzGAOIW6AIE2nZvvtR7znkwCEMqeMjCsE8x45Bm01Ecdkhwhtqm4lNohxTM0dA6T3iEMoaKiwYkzb2ddPBYzZLnK7ahuEm4gsZuoguVwnuFKJzRUWDEmd8QXOq+MzT5aO27NoTdbuDNjoLlcE2gATDExXRFz7uc9TP4qROYpuOx/PeQXM3O3ckck2AATDExIMw8A6X6pzisg1cbiw6q76ahkjtH5XHeAajERIMw8BOL9ND4zY/AvnNZMydJLEWD196h4npg8De6/KgcYAEwrW48Yx+0qOieGUwkMlKqFosskNDKohS8mqoNt3KWUL4H4hLaI4oBqNq2v8ALwqft/kbTn9rIKYSGtq5wkA8BfyvFLYnvVq2sDAPWft/k7Lv9vJAdBtm5uvDPu5Xm3DiWna/R909b3L2Hf6MoB0G2boB3nyynOlcO1LU6bYuC3+93+nMti6OpzRMBA4hNh2na3T7U9b3F3O/0ZtsXR1GZMKcqJwrTtbcn7f53a6/azrZunjy7rU5VvYNqWrrvT9v8/sXDVLPte6Mq91OCBwLStfnYE9b4Oa009BDUPbwFs3TywyPiAfSL37UtXqcKegOrAQ0Gly8KvgLYujp8j4hn/DetS1eqxJ2AB6BiiUzsv28DbF0dNj/ABCPq53bVtf5gOLOwISAKpjQhoPgbaugWdAOoYl/D/eNy1rW+YiAAUMadggkCvUBTP4K2bm6AQHUMO+TcU7t2rbPzQ4ABQyJ2AJJkcIHbK+Ctq5hjRKYDlwrxNrcW1a9sGljkKCZcq4bfJLoqpHQV8FbdymizFMBy4N1m4rh2bYtgZY5SlTLmXBbqcwm4bqNVvBW3cpooxDlUJgXCbinNi2rbNMqpkKkTOm4FCZSkY1eLceCt24zxJ0lSLpb8yOsx323bZ5lVFEjdLwD1ijIN5u1XEZ4O3biPDqJKkXS3pUeKU7rbt482uiiRsl4OYtBs/qQi3MYp4G37hUh1W7hN0juB7vB4nnbb1vKzi7Zuk0Q8KomRZOTsdJSn8Y6jT+AgJ9SGWbuE3aO2HuqOqvZb1vKTjhs2SaIeIOQqpJCy2bmn9rSDDwEBPqwqzZym7Q2g9w+4esDAqzblq2SZN/GPodnJU9sMo07tqRZ50HOrQy7R4i+b7Ie5f0+kFBLTblkyRj23kHUe2e06shitTmxnidOIOQa5cJNqwzhm8Sft9gfsBf01Bwqs27YskY5t5VwybuqXtCMWpewkxpax36dLW5JoUsgo3xoWaWhnDB+jJNu82ol0EtQ0MvNuo+PQi2vnFYxmvSlqxatKWPHnpSwSDSlhuQpSypIlGtSVLR4ORTo7B0nRvwrXcsldQkvsSFqR0iuxYIRrf8A0bWjtklKNEsT0aCjjUNsxZq+komhs+KGhsuNobHj6+hGFfQjGhsRnQ2G2qIgm0MX/r+//8QARxEAAQIDAwcJBgMFBgcAAAAAAQIDBAURACEwBhITIDFBUSIyQGFxgbHB4RAUkaHR8CNCUgcVM0NyFjRTgOLxJFBigpLC0v/aAAgBAwEBPwH/ADUtyuMdSFpbNDb90x3+EbGVxo/lG37ujP8ABV/4mxgolO1pXwNiy6nak/8AJfeWNLoc8Z3Ct+rK5i3HNUFyhtH06tY37bKhmF85APcLKlsGra0PhZUjgFfy6d5+tl5Nwh5qlD4fSy8mP0O/L1s5k7Go5tFd/wBaWdlsYzz2j4+FtnS51OhAp0LP8Q/K0EpS41pRN5UPHVZeWwsONmhFpZM25gimxY2jzGK6y09c6kHts9IYJ3YM3s9a2fyaeTewsHtu+/laIgoiF/jII++Ozo85nKZenRNXuH5dZ8hZa1OKK1mpNpb/AH1n+pPjrNOrZWHGzQi0rmiI9FDcsbR5j7ux9t1oqRwkTeBmnq+my0ZJIqF5QGcnq+nRJzOEy9GjbvcPy6zZa1OKK1mpPslgrHM/1Dx123FsrDjZoRaVTVEenMVcsfPrHQY+Tw8byhyV8R5/dbRkC/ArzXR37j0GcTdEubzU3uHYPM2ccW6suOGpPtk4rHs9uAhamlBaDQi0qmyY5OjcucHz7Pp0F5luIQW3RUG00lK4BWcm9B3/AFx5vN0S1Gam9w7B5mzrq31lxw1J1JGnOmLQ6/LBQtTagpJoRaUzZManRuXOeP3w+x0BaEuJKFioNprKlQK85F6PDtxZtNm5a3xWdg8zZ55yIcLrpqTq5Oisyb7/AAOElRQc5JvtKZumMGiduc8egvNh1BSoWmUtMIdI3zPDDms1blrfFZ2DzPVZ99yJcLrpqTrZMCsfXqOGCUmotKJuIsaF7n+Pr0F1AJKSLrTKWGFOka5nhgzSaNy1rON6jsH3us/EORLhddNSdfJRP/FLV/0+YxASk1FpROBFfgP8/wAfXoD4vrYgKFDaZyww34rXM8PTXmcyalrWeq9R2C0TEuxbpeeNScDJJHKeX2eeKDS8Wk8594pDxB5e48fXxx39nsIBFDaZSsw9XWeZ4emrMpk1LWs9d5OwcbRUU7GOl541Jwck0UhnF8T4D1x5POdPSHiTytx4+vj27cV7Z7dtpnK9BV5nm+Hp7ZjMWpc1pHNu4cbRcW7Gul5434WTaMyXJPEk+Xl0CTznS0h4k8rcePb1+PbtxH9g1ZpK9DV9gcneOHp4Wj49qXs6V3uHG0bGOxzxedPphypvRQLKeofO/oMzy8jWmvc4JV42r2nsFbu/4cS3ldPWlZ6YpXfQ/I1FpR+0pYIbmrd36k+ad/cR2G0HGw0wZERCLC0HePu49RvwX9ut+0GV+5RqIlB5Dg2cCNtOq+vxw0JK1BI32SkISEjd0CdznOrCwx7T5Dz1JPOo2SP6eDV2jce0fZG42yfyjhMoGM9m5Y5yd4+o6/DAdNVa37TIhJXDQw2jOPxoB4HDkzWmmDSeuvwv6BO5zSsLDHtPkPPWgY6Il0QmKhVZq0/fw6rZN5RMZQQukTc4nnJ4dY6ju+Gub9VxxDSC44aAXm0/mpnMxci9xuH9I2fXtw8lGc6JW7+keP8AscedTrNrCwpv3nyGBKppESeLTGQx5Q+BG8HqPrttKJrDzmDTGQ2w7uB3g9nrqumidbL3KUGsohD/AFn/ANf/AK+HHEyYY0cFpD+Y+F31xp1OdHWGhjfvPDq7cLJHKJUhjfxD+Cu5XVwV3fMd1kqCwFJNQdR4301cr8rUytBgYI1eO0/o/wBXDht7SSo1OGlJUc0WhWBDMIZH5RTFnU50FYaHPK3nh6+Hbifs8yg94a/dEQeUi9HWneP+3d1f06hNTXUyqy3RC50FK1Vc3q3J7OJ+Q7dilKWoqUak4mT8L7zHJJ2Iv+nzxZzNyzWGhufvPD18LCHJ51gwgW0aOFsxPC2jTwsWUcLGHG42MOobLFKk7dSDi3oCIRFQ5otBqPvxtKpk1NoJuNZ2KHwO8dx9jqqJp7YyMh4BkxEUsJSN5tlJlw/M6wsBVDW8/mV9B1fHhjZNQfu8JplbV+G764k1mWgGhZPK8PWwFMJTSFWVDn8tikp2+z9nU692ilSt08ly9P8AV/qHzA4+xxWcr2T3LiBldWYb8V3q5o7T5D5Wmk4jZw9poxdeA3DsH2eONLoNUfEpZGzf2WSkIASnYMOaTH3VOjb55+ViSTU4tK2Uwk7LSyCiXYtGhOaU353Cm/tsMo4vOqUpp3/W0zyylstbGcSpw/lG3vOwfd1p1lhMpxVvO0bf6U+Z2nw6ugZPy33OH0rg5a/kMOMikwjJcNnHFOrK17T0CRRjKIgsk3q2fT2ZQxTcTHHRmuaKffx6Bk/Kfel+9PDkJ2dZ+g+9+JNov3l/NTzU47jyUWW8pdkJzlUsuMiVt6JThp22UnMVmm1bVxZNJ1TFeeu5sfPqFkIS2kIQKAYczifdockbTcMYqCRU2ciCq5PtYTdX2RTdRnjUrauDJ5Q5M15xubG0+Q+7rNNIYQG2xQDEnURpX9GNifHFcdDYstalmp9oFbrAUFPYRW6zrejVTXratq2ratpRKHJm5U3NjafIdfhZppDCA00KAYjiw0grVustZcWVq34jz2juG2xJJqdRkVVXUfa0ievDlEpcmbvBA2nyHXZhhuHbDTQoBizp7Rwub+rEdd0Y67E1vOqyKJ1Yln84wZTKnJm7QXIG0/TrtDw7cK0GWRRIxp87nOpb4Dxwyc0VNlrKzU6ovsBS7WfZ0ZqNmvKpW7M3c1NyRtP3vtDQzUI0GWRQDHmLmlinFdfhhxSrs3WaFVa5AIobPMFu8bNWWSx2Zu5iLkjaeHraFhWoNoMsigGOtWYkqO6xOcanDiufrMDacF2F3osRTb7JbLXZk9o29m88LQkI1BNBlkUA6BMV5kI4erxuxIeQpfYJiLlHZ1WjIN2BdLTo9dVjm4SkJXzhb3Vu0ujFS5dW+bvFoeIbim9I0bugTtWbC04nDlUszKPvi/cPZHwDUe1o3O48LRsE7Au6J0euozzMWCjXIJzPRs3i0NEtxbekbOPP1cltPbhSuV5tH3xfuGpGwTUc1onf9rR0C7AO6N3uPH2s8zGg4xyCcz0d442hYpuLb0jeNP1fioT1YMqldKRD47BrRkG1GtFp0elo+Adl7ujc7jx9jHNx4OMcg3M9u0JFtxjekbxZ2axVOrAlUrrR98dgwIuEajWi08PS0wl7svdzF7Nx42YN5HQIWLcg3NI3aDjG41vSN9/ViTY1jF93hryqWZ1H3xduGFFQrUY0WnhdaOl7sseou9O48egwsU5COaRu0HGtxreej4YcxNYtzt1pVLNJ+O8LtwxImGai2iy8Kg2i4B2Xr0a7xuP3v6DDRLkK4HGzaCjm41vORt3jCjP7y52nx1ZXK9L+O+OTuHH0xn2G4hstuCotHy9yBXfencegw8Q5CuBxs32gY5uObzk7d4wX73V9p1JXLNN+M8OT49AdaQ8gocFQbTCTuQ1XGeUn5joMPEOQzgcbN9oCPbjm6jnbxgOmq1H2yuWGIOmd5vjYClw6FGSZiJ5SOSq0VL4iE/iJu47ugMvOQ6w42aG0vmCI5HBQ2jXPslks95Old5vjYAAUHRYmTwsReBmnqs/IYlu9vlCzjLjJo4mmMy8thYcbNCLS+YojkcFDaNY2lktMUdI5zPGwASKDpCkhYooVs7KIN38lOy6zuTqf5Tnxs5IoxHNoe/62XARTfObNiCm44TTq2Vhxs0ItLpkiOTQ3LG7VZkStL+KeT42SkIGanZ05SUq5wsqAhV7Wx8LKk0Er8lO82VIIQ7CR99ljk61ucNjk5wd+Xrb+zrv+ILf2eif1J+f0sZBFDePvut+4ozq+Nv3FGcB8bQMnimYhLi7gP87P/8QAPREAAQIDBAYHBwQBBAMAAAAAAQIDAAQRBRIwMRMgIUBBURAUIjJhcbEGI4GhwdHhM1KR8EIVJESAUHKC/9oACAECAQE/Af8AtSqZZSaFUdaZ/dHWWf3Rp2v3j+Y0zZ/yEX0nj/4XRru3qbNWZl1Mq8NcOLGRgTLw/wAjAnXxxgWi6MwITaX7kwm0GTnshMwyvJW+SsrpjeVlDoAaUPDVUkLF1UTMsWD4YqVqR3TSETzyc9sItFB74pDbzbvcO7ysqXjeV3YACRQQ/wDpK8jrKSFi6qJmWLBqMtwanXW89sMzjbuzI7pKypeNTlAASKDof/SV5a6khQuqiZlSwajLcWJtxnZmIZfQ8Kp3GVli+anKAAkUHTM/oqwCAoUMTUqWTeT3dxQtTZvJiWmg+KHPHlpYvnblCUhAup1JvYwrBIChQxNShZN5Pd3EEpNRErNB4UVniy0sXz4QlIQLqdWd/QVhEV2GJqULPaT3dxSSk1ESs0HhdVnhy8uX1eEIQG03U60/+jhkV2GJuU0XbRluINNoiVmtL2VZ4MvLqfV4QhCW03U69on3YHjiZxNymj7aMtwEZRKzWl7C89eXYU+qgyhCEtpupwLSOxIxpuU0fvG8scdGUSs1pOwvPVYYU+qghttLSbqcG0T2wMebk7nvG8sYakrN3+wvPpYYU+qghttLSbqcKeNXjuE3J3feN5Yo1ZSbv9hzOGWVPKuphppLKbqcOYN51R3GR9m2Vq08yP8A5+/2hVh2coULIid9kxS9Jr+B+/8AfOH2HZZZaeTQ4I1rCmdMyWzmnDJoKwTU13CzLNpR94eQ+upPWexaDejfHx4iLTst6zHLrm1JyPP84A1vZxs0cc8hhzSrrKjuFmWbk+8PIa0xLNTTRZeFQYtWy3LMeuHak5H+8cRKSo3UxIy3VJdLXHj54doqogJ549mWbeo+8PIYE7JtTzJYdyPy8YnZN2RfLDuY+fjqjWsOzv8Alu/D7/bEn13nbvLGsyzb9H3hs4DCtuyxaLHZ76cvt8YIINDqDVsmyjMnTPdz1/EZYeW2HF31lWLZlm6T3zw2cBzxPaezNEvrrQ2Kz8+fx9fPAsyxi7R6ZHZ5c4AAFBiTrlxo+OLZlml86V0dn1/EBnnAbTF1PKLoi6nlGjTGiEFowQRnqTDCJlpTLmRiclVyT6mHMx0DpaZcfXcbFTFn2MiW94/tV8hjTzt9y6OGJZVlGZ9893PX8QlISKDCKEmC0eEEEZ9HtTZ+lZE4gbU5+X4Pr0DokrGeme052U/OJaUZlE3GhjPuhlBVBNdpw7JszratK73B84AAFBjFoHKLRcRLMHSioOynODZzVNhMS9kTL6qDYnnEnZMvKdql5XM7hOv6Vd0ZDDkpRU48Gh8fKG20tIDaBsG4W5aErMFDLS6kVyy/nokmyhnbx3CcmdGNGnPEseT6rL3ld5X9GPaNuStn1Qe0vkPry9fCJ+2Zu0Ni1UTyGX5gQh5xBCgcoYdS+2HE8eimLNTIZFBnBJUanDsqV61MgHIbTjTEw1Ktl15VBFp+0r0zVqV7CefE/b+7elPRY01dUZdXHLUpFMGZmQwKcYUoqN5WJYUtopbSnNXpi2nazFmI7e1RyH9yET1oP2g5pHz8OA8tZKik3k5xJzImmQ4M+PngUikU6JmZDCfGFKKzeViNNl5xLaczCEBtIQnIYls20izU6Nva4fl4mHXXH1lx01J1E6lnzfVHdvdOf3jPCmZkMJ8YUorN5WLYTOkm7/7R+MS2bVTZjOzas5D6w44t1ZccNSdVOrZE9X/bOfD7YMxMJYT4wtanFXlY3s81dYW7zPphzD6JZpTzmSYnpxyefU+5x+Q5YYNNoizp8TSbi++PnrzEwlhNTnC1qcVeVj2a1opRtPh67cP2smylCJVPHafp/fDWGeuham1BSDQiJC0EzYuq2L/uWq++lhNTDjinVXlY7aC4sIHGAAkUGH7WIUJ1CzkU/U6ycAEg1ESdsDuTP8/eEqChVPQ++lhNTDjinVXlbhZaNJONjxr/ABtxLem2p6jCMk8ft4esLQWzRWqnCZmHZf8ASVSP9YmqU2fxBmnVr0izWELCxUbhYCL03XkMO17Vv1l2Ds4nocbDgoYWgtmh1E5YqFls1EIWFiox/ZxPadV5fXCta1r1ZeXOzifoNRxsOChhaC2aHpTljIWUGohCwsVGN7Op9wtXjg2ta2cvLnzP0GstsOChhxstmh6E46FlBqIQsOCoxbBTSTrzJwLXta7WXlzt4n6YC0BwUMONls0MJ3BKig1ENrDgqMSxxSRb+Pqde17VuVl5c7eJ+mEtAcFDC2y0rbuKVFBqIbcDgqMOzRSTb8ta1rV0VZdg9rieX59MRaAsXVQtstmh3FKik1ENuBwYUkKSrX/qPTVta1tDVhg9rieX59MZSQoUMONls7ilRSaiG3A4MGXFGUDwGpatq9XBYYPb9PzuBSFChhxko2jLcUkpNRDTgcGA2KIA6bVtUSw0LPf9PzBNdp3JculW0bIW2pGe4AlJqIadDg8dfLotW1OqjRNd/wBIJJNTuqmEKy2QqXWMtsEEZ4wJSaiGnQ5569qWoJQaJvv+kKUVG8reCK5wWEHhBleRgy7ggoUMxhgkbRDToc89V/2gQWfcp7fpClFZKlHbv1K5xokHhHV2+UdWRHVRzjqp5x1ZXOOrLjqy46u5GgchtlYUCf8Auz//xABMEAABAgIECAoHBQYFBAMAAAABAgMABBEhMUASIjAyQVBRYRMgI0JScYGhscEQM3KRotHhNENTYoJjc5KTsvAFFCRg0hWDoPF0o8L/2gAIAQEABj8C/wDL+LBDj7ozg1Ri9cfZpn3J+cfZ5r+FP/KPUTQ/Sn/lHq5gfoHzi14f9uPXODraVH2o/wAlfyj7YntSoeUfb2O1dEVf4hK/zkxizLSupwRVX1f7IHDLoJsSKzB4Fyki1JqORm0Pes4VRO+k25OyM0e6MR1aPZURFU9M/wA5Xziqed/VQrxiuYS57bafKMZuWX+gjzjHkEK9l2jyjlJR9PsFKvlGMp1r2myfCmKp5lP7w4HjFLTqHfYVTr2k4zhzUbYU66cJaol6DaaMj+HMoGI75HdC2H0cG6i0XWwRyU2+2NiXTRH2rhBscQkxy0qy77BKPnHLSz7R/LQoRVOIR+9xPGMJtQWnak062wlYyzmo2wp11WEo+iX6/LJUHEfT6t3Z9IWw+jAdTaL1hNqLaukg0GBgzanE7Hhh99sUTMolf5mVUdx+cAKdVLq2PJo77IC2lpdQecg0jWPCLrUc1HShTrppUe70y/b4HJ4KsR5Pq3dn0hTEwjAcT37xuvuG0tTS+k2rBMULWmaTsdTX7xFEy25Kq256e6vujDYeQ8ja2qnVvCOVqOajpQXXTSo93El/1f0nKcE7iOJrbdFqDCpeYTgrHuUNov8AwjS1NOdJBoMBMwEziPzYqvfASHeAd/Deq923VRcct5qekYLrppUfcOKx+r+k5XgncVYrbdFqDCpeYTgrGkWKG0ahAbd4RofdO1p7NkBDp/yb3RcOKepWpy44epOkwXXOwbBxm9wPhluCeqUK0OC1BhTD4oVoULFDaNRJSlXDS4+4WfA6I5JWA9pZXnfXUhddNWgaTBccPUnQOP1IOXLLw3pWLUnbBYfFdqVCxQ2jUQUklKkmkKBoIhLH+JVp0TAH9Q84SpJCkqFIIsOoVOumhI744RdQsSnYMg5+6PiLgWX070qFqTtEcC+PYcFixu1HgjlpU5zPmID8u4HGz3HYb+XXTQkd8Ya6kjNR0ci6f2fmLiqXmE0oNhFqTtEcC9jJNbbosWNR8KwaQc9s2LEB9hXtJNqTsN9U66aEjvjDXUkZqNmSmT+UXJUvMJwkHTpSdojgnsZB9W6LFjUYfZO5SDYsQl9g1G0G0XtTrqsFAjCOK2M1GzJzf6fO5ql5hOEg+8HaIwHMdpXq3dCvrqPCQrFVaDYYw2zWM5JtTeVOuqwUJ0xScVsZqMpMq2qAui2H0YbaowF47KvVu7frqMLbVQ6io084b4w0VKGcg2pu6nHFYKE2mOiynNR55V0/tfIXVTD6OEbVoihVK5dR5N6i3cd+ogeaajAdaNCh7juMYaKlDOQbU3VTjisBCbSYozGE5qPM5anpLJuy2H0BxpYoKTGlyVXmO+R36iSdIqMB1pWCsRSMVwZyNlzU44rBQmskxQMVhOajzOXl+3xN3Wy8gONLFCkmNLkqs4jvkd+oVo7fQl1pWCsRSMVxOcjZcStZwUiskxgopTLpsG3fcJUfkBvC2XkBxpYoUkxhJpclFZrh0bjqBG+r0pcbVgrGmOi8nORlypRwUiskxgIxZcWDbvuLCOihI7ryppxIW2oUFJ0xhopXJqOKro7jfwdlfES42rBWmwx0H05yPMZUqUcFIrJMcG1SJdPxb7iALTe1NOJC21CgpOmC60CuSNivw9x+d/QdqRxEuNqwFpsIijMfTnI8xkypRoSKyTBZZqlx8dylk7XE+N8UhaQtChQUmwwX5elckT2tbju335vq4qVtqKFpsIjAXQmYFo27xkSSaANJjgWTRLj47nLjeT3X0pUApKhQUmwwZiXBVJH3tbju331vq4wUklKhWCIwF0JmBaOlvHHpNkFhg8gLT07oT0Wyb8UqAUkigg6YMzKgqk9KbS39L431ccKSSlQrBEBtyhMwNHS6uMZdg0M6VdL6XWZXsAF/oNYMKmpVNMpzkfh/S9teyMgCDQRWCI4J2hMwPj4hlpdXJc5Y530uzq+k55agoNYMKmpNBMratsfd7+rwvQGwZEEGgisEaIDT1UwPj9CpaWVydi3Bztw3XdjaaT36iXOSSOQtcZTzN43eEUrODujne+KlEddcWYQ/LdEDaaMmCDQRpEBg1dNwc4XhlvooA1EqVlVclYtwc7cN3Frt2iKbU7bkj36jYbNilgd+olSssrk7FuDnbhuyFLf8NxWrYNRtnQgFR1CqVllVWOODwGSpFS/GKDUcupW06jmHdgCRqBUrKq3LcHgMpsVtgg1EZZtO7KUXcK/EUVeXlf1SssrGsccGjcMtSKl5VCdp1Iy10EgX5UrLK5Sxbg5u4b7hhpztm3KFXRGo5dGjCpPZXflS0srlbFuDm7hvuWGmzTk6elXqN57oJwR2/wDq+ql5c8tzldD63SjRoyISLTVASLBVqNB0uHDvhl5c8vzldD63UpPZBBtGQwtCdRttJtWrBhKE1JSKBeywwaZg2nofWK6zduEFotyAOlVeo1Omxod5/s3sssmmZPwQSTSTWSbxRzTZxko2mKBkKr2gkY7uOfK9cEyQZk/BvgqUSpRrJOmKyB1xaVdUVI95jmiM/ujPMZ5jP7o0HsitI7IrQR1RnUdcYqgerKUc7RxlOHqGo2meka+rTAAFAGi88G3jTKhV+XfCitRW4aztirEEUk05WpZjGSFRXSnrjFNPVkcMWK8eKlPv1G5NKGdiI6tN5oBBmFWDZClFRxqyTabnVFuF1xjDBjFNPGKTpgg2j0g6E16jQ0itSjQIbaRmoFF4wRyk0sYiNm8wp11ZW4qsk3eqqK8cb4twTv4uGNNR9I2qr1GqcWPyo8zeKqHJpY5NvzO6FvPLLjqzSpRveKqiMcdoilJp9BSbNsUU0+zXCEYVG5VWo0MotVp2QhtAoQkUC7qfcxlWIR0jC331Ybi7TfqQaDGOMIRwSPVC3efSplw0rQKQTpGouFWOWd7hd1uuKCG0ClSjohTxpDQqaQeaNQnr9KOpXhqHh3RyKLKecbx/05lWIit4jSdA1DjYg744VA5I27j6VPu0oWupKdiY23/AFSBnr2QlttOChNQF3ce+9OK0naqCpSipRNJUbTf6VYg74xRXtPoJNkU4OD7MIcwAaDaquj01iKq4rvYbbHWrQISy3YLTtN4KUGlhjETvOk/3sv1VQ2mNqtp4gT6cE5yKuJXFVUWXgNtjrVoEBtsdatt4cWg0POcm3uO2+0AUmKXKzs4xPpCtFh49Yio++LLoG0is90cG3bzlbbyWkmlqW5Me1zvl2XymxO2KEjt41G3i8Gc5PhkaxFRojbFYytQpiuqA0ymlR07IwEVk5ytt5fmdKE4vtaIJJpJtJvdLn8OQO7ipWNEBSbDlLI2RnRoiyM2M0xmxZGiK1RZT6A22KVGMFNajnL23qXkUn9qvwHnesFIpMU2r25Anj8Cqw5t4DbYwlGKBWs5yr3MzFNKVKxfZFQvOCmKrdJyITkKecKlXYNtjCUYotcOcq9zTgNC1J4NPWavrecFPvjBTkicgFaNIgEVg3RKEDCWqwR0nVZyr5KSgO11Q7h/+rxgiMFPvyRyXBKzTm3NKEJwlmwR0nlZyvIX2bXTipVwY7KrvQKzFHO0nJhOTwFHlB33EIQMJRsAik4zys5XlfX5g1hpBX7hFJNJ0m78IbTZlFHJhSTQRFNihaMuEpGEo2ARhKreNp2br8tGl5aW/Pyu9HNFZyhOVC0xhJ92zKhKRSo2ARhrreNp2X+Tl+ikuHtqHgbuNqq8pRty2EntG2MJP/rJgAUk2ARwjlb5+HUEzXSluhsdgr76bslO05UDZl8JPaNsUp7RsyIAFJNgEcK7W+fh1C8/+Ksr95puwyqrgFJNCowVYrmzbx6BWY4V2t8/DqGdcpoIaVQd9FAu6Tf8ABdx07dMUoUFcXhnhyugdHUS0/iuJR5+V3AApJqoENvO0LVRyiU8z55NXVdKUkpO0RjgL7jFYUmKsI9kDAJaoNIwTX74EvMEJnAOxz66ikmdClKX7qPndqBWYE3NJpmjmo/D+voVMyqeStW2ObvG7JG8hSSUqFYI0QJaaUBNc1X4n11Cy3oQyO8n6XZM3NppmTmoP3f14ipqVTydq2xzd43ZHtvVIqMJlZpVEzzV/ifXUE3sTgp+EXUTs4jlzW22fu953+HGVMyicW1bQ0bxkB13ukVGESk4qiYsQ4ef9b/Or2vL8boidnUcta0yrmbzv8PDjqmpVO9bY8RxxfUyc4rlrG3Tz9x3+PjfCo2CuKTaa7mienE8ra00eZ+Y7/wC+rImYlE189oad44w678iTnFctY26efuO/x8b3PLFoYWR/CbmienUb2mlf1HKKmpVPKWrbHO3jfqRMpPLxrG3ladx+d7nTtSE+9QFyRPTqd7TR8TllTUqnlbVtjnbxv4itQJk5xe5t1Xgb0tPTcSnz8rimenEcna00rnfmO64KmZZPLWqQOd9fTRqFMpPLxbG3laNx+d5l06S/T8KvncET06jkbWmTz953ePjcTMS4of5yen9YoNvoOoUyc4vkbG3TzNx3eHhd5BG0rP8AT88uidnUcha20rn7zu8fG5l+XFExpHT+sFJFBFRBgK1EiTnFcjY26eZuO7w8LtJI2IUe8fLLCbm0/wCmGYg/efS7F5mhMyPjhSFApNhB0RRqJMrOKpl7EOH7v6RSKxdWR+wH9Ssqmbmk0SozUfifSKBUBou/DM0JmR8cGkFJFSgdGoxKzSqZbmr/AA/pFIrF0I6LSR45T/MzKSJNNg/EPygACgCoAXlTjYCZij+OFNuJKVDQdRiXmSVSuhVpb+kBSSFJNYI03Oa3YA+EZMTEwCmSSe13cN2+AlICUgUACwXvDRQmaTmq27jCm3ElC0mgpOjUYl5glUmfe3v6oCkkKSRSCLDcp32gPhGSExMApkkn+Ydg3QEpASlIoCRYL7hoobm02L0HcYWy8gtuIqKTqPgH6VyhPa3vG7dAUhQUlQpBFhuM8f2pyPCu0ok0Gs9PcIShCQlCRQEjQL/jcm+kYjo8DugszCMFWg6FDaNRhp0lcmdHQ3iEuNqC0KFIUNNwn/8A5Dn9RyHCOUok0nGV0twhLbaQhtIoCRo1CWX0BxB7t4hTrNMxLW4Qzkdfz1HwblK5RRrT0d4hLjagtChSFDTl507X1/1HjlSqUSiDjr27hCGmkhDaBQEjRqRTsvRLTB2ZiuzRGBMtFGxXNV1HUWAulyVVnI2bxCHmVhxtYpChlpg7XFePGrpblUHlHfIb4QyygNtIFCUjUxQ4hLiDalQpBgrkV8Cr8NytPvjBmWVN7DoPUdQ0GlyVWcdvzG+EPMrDjaxSFDKrO0ni10tyqDyjnkN8IZZQG2kChKRqkoWkLQbUqFIMFUuTKL3Vp90E8Fw7fTZr7rdQaXJZee35jfCHmVhxtdYULhgjEYR6x3ZuG+EMMoCGkCgAat/1EulaunYr3wTKTJT+R4U94g4Uspaek1jX6qlcurPa8xvhLzC8NtWnJj04KcRlPrHdn1hDDCMBtOsf9Qw27vUmv3xSypyXOwHCHf8AOORdafG/FP8AfbHKSboG1KcIe8XvCTjsqz29v1hL7CsNtWSHo4JGK2mtxzoj5whhhOC2nv3625dht720AxUypo7W1mORnFp/eIwvlBwFsujcqgxjSbh9jG8I5VtbXtpou2GjGaVnt7frCX2FYSD7wdhyBotigigjQY4JrFQK3HTYgQmXl04KB71Hade8pKMLO1TYiuVA9lah5xirfb6lD5RiTqk+03T5xyc0yr2gR84q4Fz2V/OPshPUtPziuSf7GyYx5Z5HtNkRjVdeVLSfVuIOGOqw/wB7cjwy2y24TSotGjC64DEs2Gm7aNv+yMZpCutMY0lLnraTH2FjsQBH2NHYTH2T/wC1fzj1Ch/3FRY6P1xnzA/WPlHrpn+JP/GPXzP8Sf8AjFUw/wBtHyiqZd7oVwOEpxec4u3/AMv/AP/EACwQAQAABAQEBwEBAQEBAAAAAAEAESExQEFRYTBxgfAgUJGhscHREOHxYKD/2gAIAQEAAT8h/wDr+tRzCNiUrt/RdpKvPQlX5r6Ii35hxfO6rEDypc4dkLvKwtJcr5Rcy6f7R7tc+4YJoGqnE2n/AId4y6JnSDM1gSN5cAvAfIUHUJyIjw18npFWdWA8gu0kw1S7U/SHwufEY7FFsIszc135QRWNV9q4KrnYTf4P8jJ94ssSM7UfjEpeeUD5u9TtEwyKv1FKqYtxHggVSUEf9/hlnNICJP8AJqOuFXZrOsoDAJYH0TlCBaf6SQ+8duZaxPCYKsn9x9ouvaTfGQVb7GD1PNti7mq/Idhm9Nj+e/8Ay4VP5WhXY6rSH6NqWTJHMdcVv3cesRIwrKTdX2iWjs0P3ITEVonon7osB6K3U8xa5OJqvzVizX0iwyDb+mfO4es57IKvR12Qu2ulkckzWuN3L9PUIl/I1DaR7ziU5hSe7AyPskJ6eWo8iE1X5qxbfwCx0NsBhmoAU/sDmZ85JfcsSuQbMe648uGUH+uRLQNJ2PJR6nWKiGhRa7rdDPbypsp2C10P9i2/AFnQ28JnsHFGYcgT+4OZnzklxHyplEzPIEEkkyJjppV5Xu6GWzFchpdHoesnbyfYbFd0ITHY7aR4pq1fGSdPxXm2pnEguV7mPbyG8NclyD1vjtEqyzJh3NG55JIcCg3dCNtsVnQ8dc1fxx/83yZ3WO8yLHtl5ENkk9AsiWYfRlVY5Hw6l2ADsfmDZHyG13AF3obw0ptDbuz4AHaTAM6sfJY7nC6hZoOc+xl6L5FLooVGUnVydrPvFJUDK+kZO2PsH4BdaG8OsuE0H7vweRmYEvGJRZRMn/lozAMCX1EzMuUnyOWJJnr5o6OXKYzdBbosdzxsvb+q0N40x4mh/d+FO0Ier/mCvmWCmQTJO6QoKpQS+g6n1XyOZyzbkX6comYd5OjiwQXLrsbxVDRzrNefDF+D7jniUySZJFWSKBQ0dNR5GKkKXviKI1C6N/3EgAJNUVB5utu78SV/gIf3CCGDUzHJHJNYroTYodHQaeRu2QlmhqI0pxlT80cOf401ie5OcvdvxZWoRhQrd0stEcneLJFWHwPlczl5DNNl6DFifkbOYaRpxrqn2aOFOMKeSiRk0c77Pj54sh7EH1htZShPx3yghVSTFZ+38vUPIZj/AGRFjnJ3E0TMjee9ruNTfBgQJoRFZDud9nx88bmyfD2Q/Qad5xPQyY1zvc/UPIJGrJfh+v5l8K/TqRzOb9RqYEPJ8iCJ5kOf1YDez1lfvEZcQBpE/bsrx/Po5+QTDkvd/UjWo+HUikpEnp7mpxzXjmUgIqfbuvV+YHLj2UYmRbVswRb2par75OfPH71iHKp/XYOmMORAHcZfHzxD8hmEgInuW5L1baHZgFvokQEkixipFtWzBDZt1FTu6adDW+OzqmPbwIQVPLRMQATyH6Pj0XhBALMJAaw+C69lau2h2YEGKgn0Yx0ADZg3EgUs5VRtqaOhyXGufL+F0gTvhijBdk9lMuCZY01JAQwQ+rZWrtodmCJqx6FP1jWPsNmDcSHYPUuj6mjodXyIEHvmQxTGtGw7KeMGQBVXKFlrY835hDZ/2A+8c/8AMPMDcSEEjuN9+WeMMvGEPvMpIwyY2wOv48KgKsgzh5VrIsLA58Pqq/Bj1QAJIlEh0yMyu+/Tli3M3+rgO2dMpI6kE3CpkDU31Opt/bBWmc6HafK+FoZWR0B+vkCoAEkSiQ5ryB2u/RbEWjJOQcFyzphJWpClBqNgam+p1No76Afoz5Xw1QEpr1UvaXkVUzZHWfvPhajh0Ff8gAzbo/ITPpw/ETVN1V7YTY193DYs6YkkdYqRGZSulLLfX2xCJ3b5h5FzQH7jXPlfwWTLrv8AYqzlcuemCl/IfhxBNw3cMN5P5NXkXbOqZ7nPlfxzZnXvT8wPLT9X/HiKSYqXDJIp+g0j3TyHm+DfX7nhTTnOXNCMCFEcuP2Zh28SYfk4WbPDT3lxc6vweQT+cv2bvEnug21bMC1YI8bLRJ03a8TKYfXbHoItXD/1auXO1uLTIFnXZhEUSSXHiaCgPLPiVCJg4fVVXmFcdzHV7jNy52tx6AU3GT94mk/uP+T4k1Ityw+esmdpU+MdJ9uWfLLnbAziVdhk68Ou7v0W758OwGuImfkcxduuNkarJH7DtLBoCJMaIwy3Or24N4QBzi2Yg4Q3qw1xExhHOfoewPXGGSV0Ht+IVSqq1VzwlJjNaMGVJJJwKoqM+uX3wpDeFKbiLOEHVgaZAWgWxcgQOrLBVKlKq3cNQ35JrwJylX05d78E3KEc3EyJX56B7YsfQ97h1d9Dq7uWdMJq6uImA1OXTxMdRlT0gCCQUDgSJEFmzxVET0D/ABXrikRH5h1b6HV3TSMymrVibjdVKLQjbH68FmOQQrQbD+4hYeoMCu8yGdfUQz3hP8jVnZHvgp8Se5FefxTTqHrZ97+MArlDTBbFk2cqsyuXpBlgSBYMSxQmAuHV9EKVBqTTuxPCXYq+sTwFqvF9rjUiyBtRjP7sgmYndwaca3bX98I5+E+bPxDvyh78Y8mGo9z1kdHEqSJr87+ROtFNppu4NFNSdSLxLjRGetyJ6E7PiovGbRyYMiSST+zgJ1/PLvbwgKxOmFrQqptXGBbJorWRO+/XEEhJoth8Xz6wupNSw6OaVqRQJfUesS4dlb6wMyZU8EpKnqMu9v7MCSr/AK8AhSGeO6wTezb1xEp3GbHe521TPgANe8sXcIaZQbSX22iRmdv4hoIuy3h+pxok9Ykoha3G39E7xnmPovJXIM2JTagw9bEp2uWctXSJs1TsGwaBjp4QZjKKcGsUYZUSR+rY7y/tQXDTbPsy9Y5DF/IJhLgNSuWfb00w6UwWgGcdtK05t3/DyGeveb+z0t7lN9y8hu1ejsyMRJUTBCl/o3d5aeQBNAquRFRexeCTEypru9s/xZXg8w5orcm86U23iwkupjxs+vkW/rB7jSOWHn5GvMz6LvLeHfOVmjdXNx/uAnwgT5E/wCk5KjnD6ZNqkekKD9IhokTnW/8ANcNSKw5NM4VkEd8Xvtms6sEzmJfOXEX7TLtM99JchjrL9GiQId1TTwWXm/2vHyDLwCyAm8XryRe5jUxG8iazqxuNmu9XEJeHg1S/QTecoCRItjJiWkRbTS266xbwAi2IVXN/q8vu0DMmVPFZSesfhwublqYMJtKxOkVpZDV0IPhNVkVfeWJpnihbU9ZYx99fPlFGjVXefioe/wAfDPXnZ34KwrvD7nNWLdLki/hzOKxJOSK05NIzTCVhquka4EpV/m2JQ9aTqqH1SHLOmiauri8v5fqLePaVB4b8atqaQ+0zmcS7mE2nyMaHqITsqE9XWJGb+BvIF/3CbydY/wAAj70gASCRtHsb8GrtGouIVf5titNFvqPz9MUGmDIgub6nLgajZeOeJmzZOmIyJLPuPld3/MUE2JOzOdxsGJkErmtiJSrXNeDV6j4xUIySokAT0zfDOZXQIkJLrXY2xeRkiyc0cifRifWArBHrkW7wt03gEWbbrEInJTEwiZ0SCFtQX+JtjJ1oYhMduuekeuTMvC3a0OFUurVo6YNMzZDnEzMidpl842Qk3Rdb3F64dwBSgEZgLh07RV4f+QnrgXErlmIpYBydm3zjSYoPrMZQpZpqmbh6W/ENeJzI4cy4pjEichpv5x0fplcMUNn5HRjpQWZtWf2l64eWL6DTibXHFUGpcyTSDz88y4r4GSuFiTAP+Ex8rVo3m7LXDzQ6n64kh1ONf/Oi2EBXmNzNaPDcs6VwsHQA9Dob6vkFI9AsiT1YZoAA8uLN0jjz/wDwCJw6l2/BOWdIE1YNgG5h0N9+3H0L0IVy6/U+2GJOgvs8WbN5YCUms4l8jeU5PzxoAKUAuwRIBQyOhvv2+QWey3i9xIKYaZTInJ604iyF0hZq4IeplZH7Ej4zllz8AKAJrQCBIC7+X98i1ZC6OH1CMkCaukok0OYc05Tdl0978Oc8IOFOZJini6wFV7lODqH0ISEkkkTlmFNApsJmaajqZh5C+ZC6AfPDIQKMgCasAdAm1Ze/T1/nL4LuNMuVuCpb8sS/kROSiyMBsVLJ+NmeXkNXJpcmb9jCgUAKtAM4A4KeWb95eDlQv3GmXK3AVOKISIMxGSMGDASagO3XyCgWaDtKZ7zwrgq09R2ZfK3hktBD/wAG3kdISIMxGSMCchO0j2nzvjSsSxZjh2nl7YO0bFpHSftPlwHoQ/ZueP3+N2tm+1yfljVMgZuRGp6jngrRdHSX0fAMufCc1sPoPrxGvjnNGvof2PyxhFElTehFsDaJNxodbQfg68Tl4l2GmfO/gE+RMfNTFVL1Ounq3xXaBB84KUpNC/Q/g68buAT+DPnf+yFtPyDoc96P8OK7+pwJPZfM9B7DO9pT44kq2NvO0+cKSIiUR/kw1EoSZHLyAcpaHrdPZnTEhk46D8GA2RSek/afDBCKQqPb9QiAgojl/NotfIec5fQ/sfhiCGS9Dk47kEd0l7T4QvgyGlW2QIifIJI6MTSZUfIpPIzfR8B+GHf92sOMnmjTzXV7z5XCRIoaYUOwqlg6O+j0dhS4zAkqEZXKeRMq06g7HvLlYCQQmJZwruTH7OXFZCVNrvv1gwACQCQGHXAHyDo76PR2SHKVSVv5G7QrJr9vpAEghMSyYTtQpvviITArUlZGzN6ayNsaQSA0xJcDJOwNHfRhWjyRk+RqHPcL7MsoP+InMDZHByLp9z++HRTILIf9HQZoN9w8gLAYtBJWpQ7l4lrzLVeRswWjdXJrqOpmJ/3LzBsjgp3/AOI/rha3AEkv+h6FZyM+w2QFgMjG0V5J7Pw75QnAs1O9fIwD0Nmrf5HUVnMFjF5g2RwPK79KfXBt4AdFd037sJRRsgLBj9B0FU+TsRmUA66wzO3yN621vX8Gp93nr3LMGAZ7ocAtbUNF903KJE9WyB5DU3lW61MmKKHNBQ2nwpSsvI8giqq+6ZnE9e5Zg4xFXxmZnjLJOi7+bXT0jLoo0eSZjEoqb/IbsmKmCyKvyHz5FXRdC7+XbOMjgRU7y4tiM0JinP4nKpOC697a+g5KYAh3n5NTGGdzAxzkSU5XHv0io43a8so+Q5PAdzvc/RMqgRXvTiWIyumvfwtJqQSve6XchyH6DD93z8pMRMpANyJuFyr+q3ROUNUN/wBdj0lvH1j1AiU5uft/L0QMBap/u3DsQpDefgbKsKH+hd79opTXW6+W1K1vwKxM0MpB9HoxOxPb85FTqEWUzKJpjZ6mS9R+D5fBLLQZbJk8KxHtz+1FrsUOhqoBMOhmuaua+YnyVlKSRyuInWR3sWqE/TeUz9GZCcypeUPUIzTMo4qt9N+h1NIBZBRzHR0eCpiXI9h/JsadJM/RkRJL2mqzTmvm3YtOpE7VeQezM9om3KQ9w/CJ0ykInqS94nslNvzsLyc0b5xOeFrEdXaHXbdFr+UaZoMngACWYpO04KzUTcGMs5An9hcjPlNi+Zatcwma9088nSUOz1kL6yidKuvtJJDk9mce6hambPxEdsN6EJr3PYRO5kM3wvj7mkTWjdkkCaQn0ogDZHiJiuhGb1KcEou7N9lp7lYCCVkVVqrVef8A4acTasexdMLTX3X1F/HvKReOgfhhaBtnJ/cwu3Kf5hZTeH8bxyw5wPtE4ZF8xfUS/SQSLNCQAds5f/X/AP/aAAwDAQACAAMAAAAQAAAAAAAAAAAAAAAAAAAAAAAAAAAAAAAAAAAAAAAAAAAAAAAAAAAAAAAAAAAAAAAAAAAAAAAAAAAAAAAAAAAAAAAAAAAAAAAAAAAAAAAAAAAAAAAAAAAAAAAAAAAAAAAAAAAAAAAAAAAAAAAAAAAAAAAAAAAAAAAAAAAAAAAAAAAAAAAAAAAAAAAAAAAAAAAAAAAAAAAAAAAAAAAAAAAAAAAAAAAAAAAAAAAAAAAAAAAAAAAAAAAAAAAAAAAAAAAAAAAAAAAAAAAAAAAAAAAAAAAAAAAAAAAAAAAAAAAAAAAAAAAAAAAAAAAAAAAAAAAAAAAAAAAAAAAAAAAAAAAAAAAAAAAAAAAAAAAAAAAAAAAAAAAAAAAAAAAAAAAAAAAAAAAAAAAAAAAAAAAAAAAAAAAAAAAAAAAAAAAAAAAAAGCCLGJAAAAAAAAAAAAAAAAAAAAAAAAAAAAAAAAAAAAFAAAQ0++++t+P8Pe1PPDAAAAAAAAAAAAAAAAAAAAAAAAAAfaAAAASa++++++++++++v8AghAAAAAAAAAAAAAAAAAAAAAAEXawAAAAAkPvvvvvvvvvvvvvr3wCAAAAAAAAAAAAAAAAAAGff+AAAAAAEUfvvvvvvvvvvvvvvrmggAAAAAAAAAAAAAAADP8A/wDpAAAAAAAD+++++++++++++++++/KAAAAAAAAAAAAAAOd//wD7AAAAAAAAA2fvvvvvvvvvvvvvvvrawAAAAAAAAAAAD/f/AP8A/wCwAAAAAAAAAGvvvvvvvvvvvvvvvvj4AAAAAAAAAAC3v/8A/wD/AOAAAAAAAAAAA1/vvvvvvvvvvvvvvvuiQAAAAAAAHnf/AP8A/wD/AOgAAAAAAAAAABPL777777777777774oG0AAAAABr7//AP8A/wD/APnAAAAAAAAAAAAC5++++++++++++++tDAoAAAAI9/8A/wD/AP8A/wD+kAAAAAAAAAAAABFn77777777777770MMI0AA77//AP8A/wD/AP8A/wCAAAAAAAAAAAAAABBvb77777777776EMMNMQN//wD/AP8A/wD/AP8A/wDqAAAAAAAAAAAAAAAAF9O0++++++++KDDDDDa//wD/AP8A/wD/AP8A/wCYQAAAAAAAAAAAAAADf/8A+777777776gMMMMNP/8A/wD/AP8A/wD/AP8A6AAAAAAAAAAAAAAAV/8A/wD/APuR+++++7hDDDDFW/8A/wD/AP8A/wD/AP8A/QAAAAAAAAAAAAAHf/8A/wD/AP8A/v8A++++vDDDDDP/AP8A/wD/AP8A/wD/AP8A8oAAAAAAAAAAAAAb/wD/AP8A/wD/AP8A9/b777sMMMN53/8A/wD/AP8A/wD/AP8A+AAAAAAAAAAAAAL+/wD/AP8A/wD/AP8A/wD2vvv4QwwwX/8A/wD/AP8A/wD/AP8A/wD8AAAAAAAAAAAAbmd/vPse9/8A/wD+zz74MMSf/wD/AP8A/wD/AP8A/wD/AP8A9EAAAAAAAAAABlz33333333x3zH+/wCqDDv/AP8A/wD/AP8A/wD/AP8A/wD/ALAAAAAAAAAAAA3fffffffffffff38fhTf8A/wD/AP8A/wD/AP8A/wD/AP8A/wDZAAAAAAAAAABe999999999999997I5R//AP8A/wD/AP8A/wD/AP8A/wD/AP8A8AAAAAAAAAAAX33333333333333UJAEoJ7b/AP8A/wD/AP8A/wD/AP8A7owAAAAAAAAAFHfffffffffffff64QUQlgAEAd8v/wD/AP8A/wDc8EAAAAAAAAAACX3333333333326EEESEJKkAAAACNHCAAI6MAAAAAAAAAABV733333333333sMEEEMIIKUIAAAAAAAABWAAAAAAAAAAAABD33333333333YEEEEEoIIIKAAAAAAAAA6MAAAAAAAAAAAAA/3333333333uMEEEESIIIIIO4AAAAAAkEAAAAAAAAAAAAAD73333333333oEEEEFIIIIIIIKQAAABqIAAAAAAAAAAAAAAZz3333333330EEEEEF0IIIIIIJGQoAwAAAAAAAAAAAAAAAAX33333333331oMEEEGAIIIIIIIIKGFYAAAAAAAAAAAAAAABT3333333331AAMIEEEIIIIIIIIIIIIJIsAAAAAAAAAAAAAC7333333332gAABEAEGsIIIIIIIIIIIIJIIAAAAAAAAAAAAB333333333EAAAABEsGEIIIIIIIIIIIIILQkAAAAAAAAAAAD73333333IAAAAAAAAHUIIIIIIIIIIIIIILOcAAAAAAAAAADT333332+AAAAAAAABMcoIIIIIIIIIIIIIIJMgAAAAAAAAAD333333+AAAAAAAAAAAAUIIIIIIIIIIIIIIIJAYAAAAAAAAB/33326MAAAAAAAAAAAAOEIIIIIIIIIIIIIIIJKoAAAAAAABf333GMAAAAAAAAAAAAAAK8IIIIIIIIIIIIIIIJO4AAAAABDT326AAAAAAAAAAAAAAAAAAUQIIIIIIIIIIIIIIIAoAAAAAJ72iAAAAAAAAAAAAAAAAAAABEAYoIIIIIIIIIIIIJEYAAAAB68EAAAAAAAAAAAAAAAAAAAAAAAAGQ0QcIIIIIIIIIMQAAAM4IAAAAAAAAAAAAAAAAAAAAAAAAAAAADCAKNecM0YA9IAAAAAAAAAAAAAAAAAAAAAAAAAAAAAAAAAAAAAAAAAAAAAAAAAAAAAAAAAAAAAAAAAAAAAAAAAAAAAAAAAAAAAAAAAAAAAAAAAAAAAAAAAAAAAAAAAAAAAAAAAAAAAAAAAAAAAAAAAAAAAAAAAAAAAAAAAAAAAAAAAAAAAAAAAAAAAAAAAAAAAAAAAAAAAAAAAAAAAAAAAAAAAAAAAAAAAAAAAAAAAAAAAAAAAAAAAAAAAAAAAAAAAAAAAAAAAAAAAAAAAAAAAAAAAAAAAAAAAAAAAAAAAAAAAAAAAAAAAAAAAAAAAAAAAAAAAAAAAAAAAAAAAAAAAAAAAAAAAAAAAAAAAAAAAAAAAAAAAAAAAAAAAAAAAAAAAAAAAAAAAAAAAAAAAAAAAAAAAAAAAAAAAAAAAAAAAAAAAAAAAAAAAAAAAAAAAAAAAAAAAAAAAAAAAAAAAAAAAAAAAAAAAAAAAAAD/8QAKxEBAAAEAwgDAQEBAQEAAAAAAREhMUEAUWEgMHGBkaGxwRBA8NHhgPFQ/9oACAEDAQE/EP8AqlK6YMiJnNplnj9B/cemyPjCP5O2KVOP8sGRNxE9Yp/8TxNOyMdeE9k5KZ4I6najZdgUpiTCfEg48nkx4dg8QxTomntR2xM2OKPbvhq8t9xeMeA0HgO+JtA5hB1iO+EUjU+22QQ4hzdWxzZQFyymt1TFjns1OyE/UblEk4ilIfgqdyjZd4LAugfI4j661eoHQMRkDkIvY83BKBucInIRXJ+u9QFxC9z+jKAvwRFWardx+dl2kQKiJb9cokmWJaxcT0ZlVWUF3yAVRxEtXynP0QdcRWCr1HGo5RC79RcgKRk/EC95VfgiKs1W78Qif+Y23AKiJb93JOJBRTLD8RLcPoiJaBXgo8ZarYpjNBPgPpglz6MlYOAeDIu6CjoFRVqvyRnK9J7h6SIiVHEvAKWGerOypKMPoCVrh8lxySZbEybpXGmrJo6Mt/LoHQPRkVWVIo99UVb/AKxQJEtiAWZ6J9blAyIiSRLmBTgHAJc1z5iUT6I+goI0TCaMtG+j0b8d7CBAX4LHdkXRhKoq/qZFAkbKqLD7XvdFUAYiSRLmCbgHAOZrmcyUQ+hFqCUb6c8LZi66HTJ5M67qJ38LQHVZF0jn1Ff1AsWNpTFm8HvdmHgkxJIlEcGngaNA6eRepcPoHOVZojbDAorrodMnkzgu480VauQvnQ0vf0+jILBINt23IOv8N4YeCTEqJcwaLA0bfzovbL6EAYODiMkaOFU4qpf8UbUbLtd0ol9Bd5VTHgErIMgsbgnJB6xPg3qMSCYAwCjwX85q74SPwiCI1MOCjcX/ABe1HN2O/dS9BdtqoPb4ILAWD/WKq7jgC9B3wUYmAGSU7Xwd8KfH5QCNHDocbzy/JcPlPMUri9BdtxQY9BdAsBYP9Zx3X7GHflMGckL2LseB3opGwkZOOKAHcfnJR8kVkFVkaZtA1gMXEtCwsGnmrPd8Zbo/r6Jw9GCIcRJMWKykTBHJPA9HsYIqqVNNUU1MIUbFMyCXuJULgC4blSGykZOEWFULIWDIoAZtlN1VbQHFlimGAOBL6FhlCvqZZr0JRj8i4GMIszLRiOiJEYEcUncisVzGUVoAyRS3ER2nMlLwXUPR3enX4uX0EU4oXdPLkX2kUoiJ3EookqSScSlwhnGkSbCYqk1Mi7KgRcKJW+yCgajIAIq6ARcTpjQW0jgUm1O7i3SDzUu2/OBgds0zzbUJxTbhaqo1VFfqDAIBEGtqqfVdwgki7EX1ltARXK0mF78kdO8jxTZ5SO51b6HySXUPJtStNyIjMMewM42IVEhGICsARGIjMRJIkxK7EcZdmGpcAoG/EUcSxg4eKzVmrm7sGMVYHFxaaOJCbzZ70RkUO08n/Ctd2qydEbHdqE50APksCLiPK+wCJSOeYW5rOhOLB0yFVYqs1Vmq1d5DVe8T+g8B3sVcVQtyPbypOlDvisEcAUHTGg6YVt6YTguoYrQcUzDYhnQTUslxJC4o1xexyXCSagmtSSfHGHzV0MnYKq2AVsOCIxyoBrBn5JpVBd8VAg8eSXVPgTeKk9q5NNXauAiheuvHPdVQhwwKajhqBh8PDOuUCTOTDUYRmxGIUJfAzQJQUzRqmoygqxHRZQkeVA1Zq5Z76ueYrIVfRqmCqgABkFDdhGPQz45HN1dPFau9QIJHE9le2HCOgicaEGYYQM9IuJomQB0YoPEeGF4giFJxJHNUmIxGSJuJEy6yS+gNKkBc7BotXkNN3MDaBm2PbphsopFfoELgEVojdmxlnCFYDhuIBGUUVYZwYOUpQ+g4zFI2vNzNlOjdxRrBq3fRoG/k7NyxK1gZGGAYRJsgkVMq00w6WMCMBvgY03k2aJub8RbccH0EAFAN3F/5hvyIvGG+jBgYtyd/8+YCd/iEWq8PmmBmA4EabahiYV+o+zNoJs4Cd8UAKB+q1WbPeQlpEOab6OW9nabliKn5RAwRC3wAVRwjuluG0KYjxHiPEeIsTyI4nsdBNsJ+TQAt+us1mz3lOYK8sVpErxWO8AVMHSRXY4Y2KFRT+YhCTuoAmv8ARVdAm2EF4oAfprVarN3sSNUHKr4hz3hS6qYRqRXZmuezCifH+/3c+HR9My6BNsISQSPbmtVZrXfQHpG5r+BuzSkYR7MIgMAAW2UEg4W5u2m34TLMjNWObLH6UqK5rd3+ikHh63cEG89qE6baoIjhmp4cdnt3GPasXqwBcd/8lurdb9CBA3400F6Tw61me7DA2h7dqduBBIOEI9P+YRQEH4DSjOwPa2L6Ap3PyW6t1v0IABv+VLq/rdhGRhMUFFdaXW421mQ6yUbCyOXhkz2TBOu6OhExOjPriBCbgOvEs8qSwcjF1HJLP0OGw8vrdweaUtq65FuNMJzgkwqszTMvxgiaaslBmP5KOwd6roXAT+5PrByOLlxydfxv4edV0h/d1xrEtq65Fqs6fL8ODdZnsvhcXAoMz2VPPxQ3x14jwB/cm3UQrxGpccnXzUlvomUi6r/NzzAJ5fRz2onYaN1ZHPzRlhKcRoUGZrmW4QXCijXfhmlcsmvptgKnEuOT+nvX0QPL73FglUvq6ZF6sq7ceING6zGz5oyw6nrgD0ly3CCwvoAovEsmT+lbAVJ2XWT6b9Q3ZQ/5Bt8WhL6umRerKu5jhF1GyNk/xlHBGccAekueRHBOf0D7zuWTJ/SqYjTglbh/mTfsboEGbtLak9dL6umWfCtN330CGyNk/wAYkRrleEmTkLnSJP6MJMlckydMRtQHEH+ZPvdTufpbMjqB3P5HhUIEDexEx+iZJiGJj/wcnzb6MAMOiZOY/p4pDPEH2Nn3HctU/hdhWSih+U88MABA34ZKof3fE0H5IlzU5h9GAmHcycxxSGORqaO2Y1MXy/IAYGh+Uzb0LoAAgH0mWdXCTxPZDNjhdeAT6rc4P0IZI/QczTEfn5ETMe1Gy7JhRVfhgOBoZv5m8jPAIIB9RBIOItqSQ5lOkHXEZU0pPRl0XEaZ6ib6x2T+qNzH6iLmZ4o5uxTFTiEeA7sjTN5Ghg4BIPsLCBskTEbWLn6KdsKmhoI9yHjFEcGD0xOTmcFOpEw4jBM91YQBxrUGbU08d350wGM0tox0aa9s8BQgJAW+8LAE1I48VweIYOlyP6JhWPAk9rD4wnIf5hYXMTCl0HDEl1sFGXm+8NL8cMI4EK5sVGK6Szo6P/bP/8QAKxEBAAADBQgDAQEBAQAAAAAAAQARMSEwQVFhIHGBkaGxwfBA0eEQ8YBQ/9oACAECAQE/EP8AqlASZGngfDzgenIfcFFzj7gsAOf/AIuI9UrNlmtqbHw699oZUirpxYoPOn3ivT7w+orA4P3A/S/nmMRbx9TimfOXeBEmfLehnr+ZwBCwXZ2X4TGJvLXR8Ove9fm24yix0DU+pRZj7lp4e8ATF78q/HpIHXQ8voYCQR6TJ2noTGK/HR8Ptt+KMyLCUmv3XvFrHQfD/jp8Sgs9dDzBg5B/HLfuztpwmMVpvHLR+/gyROi+HDtEx+8xPeXwaJDVz0PbINHIP65bm4cHMYqoXTR8Pr8ACskilA1M9T2y/nWwavg9sgKEg2FMaeblwcxiohdNHw8HX4Bh5JFBR66nkvbS2Gr4Ne3c6Eg2VLhdy6AoTGGG37PzJ56/AEJJIoAPXU8npdZeFXwa9u4QJBtKSM0uwCExhGhPt/NeDr8BkJJIA0z1/czlpcSEWCr7jAApBtyPcsbxAI0hZz1mX52+BTAqmMmDEyXf++mm1RAKuX7Bo5BcSN68XqCSYWYNZl+dt1PgRVMrBkXS5/uzTEFXL9gAcg9m3MzLndfq+rZCThqMt2nbdS9r/oytIKV9Dn+9/wC4AyrlBo7O+rdSVkB0n5+BbR1GWpp23U+BpFgbQ56OvffXnscoAlZ31bvfs9LPgzppNpMhvkk7piWORL8Gkx5iPWJ06fP3Cm5HUQpA6j31MkmODf5dbYm5jOS5pJN0rsGWEIyx+BjGqnd4MK1lL+2/OQsTMfDMcRjRsGn0zHJS24Fm0B1FDeTXuXe4yXOzz8CfvJO74OOW1jKUeTJKiWjGJFOcZOjHmWO2WbIMJqyDNaEHhC3Uq/RoF3qq7f6X+CKqY6umRjVsrti7Og4rAanW0bFgF8hwDQaPRmNo7NW0hIN19elybyyGDq2/V9vZUx1dMjHdW5dprLzzWmDJk0nNEcksRqOTsGzZBlIUM/q1xoYoAJFLtQKoQjeKt7MmsnU6ZZ7q3cvtFI5YNyh8tgWGwlIKjFqcjSroVBBIMLyRitj76XpiyKHc+p7qtK1KBVtgLBGiQtghXCHCYDS2KK2AzmaP5klRwbYr3Mp5lRN5J6fwW/0g9cD2w1bCHCVhnpN1oYGLe5TWeOP1eOhSFD1+qZwGGRdYJBqpwrIfwsAvW2x4nJLT+CR/Jdx4tbjDe7wYsm83F3uPYwC+QtcN+EImo3dlFpzZbjF4GKAjkFgF6gkmLYsRZn13gZjkSnOLAmM7HwQrABqpwKvbBSJGJDgbih1dfgWg+RxfB+3dkyVWQq+DVIl4gkHvXNtv1AmwdN81VqW4tmC4zk2MFpZKX3lPj8Ccrbrofb+5XgkFBdDBwLXVcr+eiVjU3qblu4hxnvS4seJSdAgTZQrOaE4W26aRRfE92ZwbOESL5VW+mrDh5rdy/wA+WFDiyN074YR4vYxVwCa4EWwaP2ijQt4k/osn/J2bLW9icS3eZuxJE0S25TiV1roZavtsJ0mt5OgtZ8Fh5dyXs8KWsW11e41tkKMWlMqCwMh3Wa4r/QnASJfwOkgzHJKMaGAZCvDE0TakRI/pJEiJeLXQ8uneHqTW8rwIHFlBfSADcEi8syGsMB6SMd1XOumrV9wCwLCzYE3Yea8Hw4O08ZQIJlLrMzoeXTvD9Jre28LEeLY7rwvJslsfeWh1bKTRECpq1XZEjZkBLSv1hhpZgDcT02qh5dIQPNb6aFZXAfa8rtKpErwwNWgYtkVG6DAKDQ6s2q7NYLLNlGJJInllU0Znk40ZG1UQqHuEOnmt/utPpvu2e8YsG5Zu8bRntqgQCRYzDDB18iput2a71oZ/mbCB5rf1BEHNlBikWXdAAhvJpwmPE2jW4BPJKJUhgWTl8Cm8szCsBmEaJaO5/lR7gZ+4w5ea+yPgaL9A+F5LGKTzzpLuZpZCrSt77NLdLTTs4jY8SApitau8ukNVprPLIKHA8xMn8CYZ16h5u5vJoY6GmbjSlY5f3KHv+/wT3o/APzciDnN4ut3QGOehm40LK/3qfyj3u/BPb7fn5Obl5A+bnlIHXyPA2va5HI+5/wApv/TbfdJFmHY8XAaEFhmNc3ChbOW29P8AI5f3OHU+Dz5tDK83+m9tNvc0hhoc83ChbS5enZEvUYOfuXwZ87YxIYl3Kuh527W7kDoO57qXacLIqaMHP9+CSe2J4KlS6lD1k2ZHJodB64qKrNvVR2RJjTB9x+CCe2J4KlS50I7BsHMBVff43wqs2/YHMjHzs3/fwRTyYyQlS40uDt/WTTVXL9sDCrhNEpNfhYyunKKHszw93/AMLJIyAKnuG00gJJZfw3eaq5c97gcXAUTzW1Wq/FtwTafUeqe84RkJOt8YWSQBJsGH17+7Ep2Q1YZrN9GbrkcWyQp0mtqtV+QAkJkZe3fVOkftnvaKADufuUVd5RO2V0iJJIMk2D2ZsFkWoBZylma26Wb8l6ymatV+cgSE4ao8oUpJxfuFqL0+ocDp/wAhwOn9jSQ4Kc36jc836jQ6xpdSLEgP+2f/xAAsEAEAAQMCBQMFAQEBAQEAAAABEQAhMUFRQGFxgaEwkcEgULHR8BDx4WCg/9oACAEBAAE/EP8A9fxQUFU9C4jeEpaYkp0f8rPYAsTMfw6CJvZce5TzZtUT7LU7aYy592mRKYLH3baTBdn5CCK/nseSmwVEwn9qwt6YMntanJrQHuVzHtSIwkf/AAwuzSyPeGCzdg0zQqA5MKQuZLlyS4Z9BAJuTWalXoFtxB2TGPTyD9RQABBkYSNcuGGeCgzHskqXVB9qgZ0QbBvdd6bLHO6pxAQImVd5I0Okkuej+G9dsKykTddts/jl740CYRaaCOf6K5UBV5NKyE6/fE0body8A1exTpZDABoDQCwUrJFZgEj/AG3ouoNLLXYMus7pXIUyqYn0TArgsnCjyBkQWaxihbWjGbuaVcGaAi9Q2j7FaTvdQfYpNBhDDdfHdLof0fMB7LV35vRWRH7srQEkZunYavbNJGeVYGgaBof4Fj9JQ7rgTVyfIToyQlQSlKlHRkSDPJEOJDkuBjuj5oWEm0uofA0nJSzo5R17KRR+B5c1zOprwpQokR9/uL0XEe+KJHQN1BwxSsHWHoJbc1ZVX/GGXZPTiSjiXZp6zE9wjes2LCVqkMWjA2RhEOM0G75Fx81Fl0kRrCWl3NQ3XN0WwF5AN6aizJY2VMPJv9tdC4hxdDYSbEmVB2BIIswegnyrKq/6Z9QOggFqZtayBUAFwUM47+rqQRZPMREAhxwLhgqNScYsWmoOXLAwQQdizfXW6abjaWXQBKstg5gSUiMNvtJ3XGGRLDYxOg3YHbUxgzB6Ce91lVfol8TI6WPn1VQMcNEyckCsAMChl0rFNTVmOSMiCJ9gdATIkjTZ7JwhYFNsbRYTBFO2fg7eWtrQAssCpEYc/ZueOHkw/LgKvT298t8jq3+rMWjdR8+tIGCCTMssqAWwjCCAnHGN3Azk3Mqz9hQCJI2RpX1u9FIWDQJyoISaWQmQFOqc4bfZPAnCMt/AXa5iZeTD8uV+vFJ1DFx8+ugchQyzgV9kbCzQJgCO3cCPaVdWdF+wqOwEmlYINxGSrfizzmwSEiSESCSkE9By0gWRERMz9h0alJbMHqo7ArALT6hZeZ0wbrl1OwAfWpMSN7XzwC2AWzw0NxuMgsiUm9nJDRecJJdlJMj9jAYph5Tdw45dQzCgeYK1hAVFzklaI3EXjtxewfMHqo7XWAURu6lzdDdQTq5AB6EsNyml/wBXAtVbMAY2Zhl3EVCkVohEcLKF7olVSXUn2KB8FLGmCGCVG6XKoTMmGwj3A2dnAhFGeNvNygjMg3Kix7wS05S5lz/yoJ1RoAHo2xtP9V4JbDV0FmzN0w4RRFI4oEXbULwySsjhUL7FFYoQiZLtJdyLkos9NFlrz0T2eLO8splaBqtCmd4RyNxutXtg9MZguRHy/BwecaThpszdWdZREUX5JGH9kAfkJPsZOmHsByuJyWTDMuEDLEmNw3gWYdkOI31JE2A1XAGav8dDsPkWr2PUzxHug4RFwYthc2VcGKl+sTgK9uws6slpD7CkkOKA6AvjcBMpEOokiMNDnYM8To7qHQTZEOG00u9DBbKrABdWCjwXo12vJX7BYm6+oeqdiP3vCkeknIouJcG4LlQ+jghkSMgwbWAOg+xHnkXm03L0Ye1YoHGZPMFHUQSEGl80aUJx1IdyNEQ4TQczwflVsBdUC9GRbqN1csWWaYDBq+ssdHdY4Z3sFngTIiXBBAigREGlkj9kILbIEGGwSSE+xBVMlI62J6pD3pbQGxJZxkgk5CQgjWEoTi+R07GETg3EXwgfl2C6sFDAdqN1csWWaYDBlfXXkQyoczF4jh4Elo3RcuIgghEERBopEohJdt2AFmwSSE+wgEktH0e5n2e1JwXJ3E1DU1PmEfmCBpK8jo9m/Au/upAtWkl45shNnfY0Oa8B/wAlfxEmvRE/lCMIkIgiJRMHQpdhQA5AORE+wNPXLN4IHunt/qd3nETUNTUc01IpQ3uidyuuSQdJ9ZH+4UWVadpN0sL+TR14FmiShERA+OJfXqXLkSn+vpnwn8rO7joNFTIzZn4qRuth3/3Uv60dRMIlkbIw0Va6bZMXrrdMphmz6pA0QwRKq4ApZbomQ3BpuOrdjgV2gHWWChAICA5cU+vUuXIlXaG2XAG8KDZkwHjwnsJHqH5+jX/3pdMIlkbIo5psLomxi/dm3MphkfTDichgiVLYAM1cA/uCbBkLdOreDggNQ23GbxTniw7SLLIhZEURqMo5ksoQ3VQa8xc44zDYva3x9M5Ut+VZIURkRREUoHcWdhZ5G+XMQ+iiCBgIlVcAFa+7IE2DIW6dW8HBhRnuw/yONI/QMsiFkRRHNXr+xWUCN1WGubkca3/2y/US868Cwj/bVMCR2AM/Jo6Q/WElVKAGVdCl/uizQfx0NcukcGbkwbzfw3xwSVKmoQsiKI0nDZkUu632FfBRDxkB5Xy/WBccObUaTIFQQhfnRdzIUtj6DYAlTAG9N6knhZofyenCr8v9y4+kz9h5QQiORNKhYKFVOTdb9LgnFaiReqV/PoHf+iGZEMI60sQygh8noS/hJP8AWDlU0dx3Uu+zfhgbkGT3hfP2AZ+w8oIRHImlR5Ensa6GXNdaYiSMm/EKBXBTtEoF0gj0QV/TCMiFxG80sTsIDFw0IT1bEn+CE1er3p5dA4cjsMdvdvsJilE8mWusDOSPMZlRDUuSH1n9ncKNjObh4hUofiwRPb9qCEPcXeE+wnOpmbzDFuDtbNu6g+aWW/pCAg4CZAlxG4mKh0Mi2ZACd7PYSuHEGLdRYj5H7CEsF652XcBj3DlM36ZCvDBEHOdl8PaKnAJcduQf8c5twTQUqTtCTyHqHPJgnB80QAmJtOeGKBY32AvZacv2AJYL0Yk7lOlJ1Qcpl9fzojrQ2pqFh69P4bVvZEsiQnAC4SB0Nh9vUORQtKVCS4eGAJmxoDb7AgmraW/pAg00DNw1n0QHhFlaDTm2fedHvjBQrZ9dFrMRzCz7vqJNMc8HakZXVl4YGwdHGSP9548JrRFfrwXPYOhq0AABAaHpwhBw2B+DZ09xUmrUh9ZHgABpcHuvqRinKR99emTh5ndl3AQH5d+PhXCbgzFD2HIZUAAFgt6thRwuD/EOnSkQOgEI7PqSKTLPN8Jrx09OY2VrBO/DBLBdqVIk81ALuy9+OAai78MdnQmVQAAQHroikbSYtejyW29RVRtxjEgX6PTKAqwGtXokbwTh56CABIzA9RHfjrJzlDDVPLomqoAQWOAGG1qg3F00zgbL7PW3pIQQ27MLPwvpoDH5M0qqrK6vDmFEkhqFR3BHGwN2ceD5B5b4COCJsZAsjZPNEyZbWZlh5mPZ19ESZOd0weWiRgpiLBB6TAt2GX9daUlgOQW4iIYt0DEPJ744wHyZALobrbqbwU5Z1KVN1Vyu/CM0LJJjw9NHk1KixWiegLAJ56pLPd29IIy7wUwSV4jN3q4ECXkTNQ/XPRQPYOLCy9eAuFNxcHAi5Bf6KnKLKq5V14bRwh4PZ+OnoW0nc2jsgn0TgyoSp+KctK+OJvytTS8Xk6hxZt4yIRJDbLLrvggq/wD+mWZUbqt1eHtcQRsjhNqYBYm6vIx7Ov1PXBcpq9iXtRQDgMAYPrWCXFS+ofikZMrl4o5WsyEzsZ2iQ3fFHsXdBEsGFmX2IKogCqUZUbqqqtchYgeamwFpq9WCkmLX8ID5rzQ/ytQJYaD8xNKfqP1QR8R+qcFekl7lfxsdIoPn35FqO5sD+dLYrQFPJJ5qDk3Q149Qwybt+HRLezpUIoiJZHJ9L2x5U1XXYg+tjYCwZphxID9/37pZZbvFArDEAT1GoGOcFAgYbACADQDiZy0CSEwOr7mW2c6dZWqrOZuyzfWkJJ0/MfAUuU8qV9WIBhcSDsyVAm5E+9c8UhC6gPcmnJNlBj0YsAjbpk/LqfQBWAVcAStGnWG7v5W6R9QdkUyhxaf171BS0hjXjFb3Im4ZAwiAeVxN0rjsDg9eWrLYqVN8gaZfgLGMVjggbDwkJVgCXBl98+ajEy0Pf38P7tLSW9HU07/U6MC0Zgv2HxJrSBmEaIwnj/ZhoaabPuT3fSgVgmKdLMrNb5/t6cIpleMgyuLwKxLsGV0BoAoYIBgXUaqV5rxC17vZKcmYgZQhYQ2Za90/g5cOdKcKidyjhCEQI9j5mlFl5Hwe8UBIISJhPo0vaEwC5tqEf+v9nmVcsglntfu/6oZYpNOVLPaz+KdLYVt/dDjnmzQMdht1KPERZLFEhctIgcFliIiim/TE4WlgAAAAAAAHFpZNKWV1G1MG35zusdl6U4D8qudTJ3/y8YVBEbi6IPak2shU7GCcxafM93Al4TZWIAlviukHSlAVYDWlkM6PPyR3pmyCbb54/VJVJGSvIB6sGWjL8jc1d1yuqrw90hMMeZNBnQDAqCp2z6ACAaAANA443iY5HcpogCIAfh8daIuaKQ5k7ADcW8QpJKQgUylBDqqCXIdlqQC1FUqquV+wJMyhuPdFsHQ34ciJqYClVNPPRBd1DXuS3QlIOPM13GPd/wBQ0Ti/YUoMV0VjuEa5HdguLHD8iM2xY5MTlWX9gQgogCVdgoU54EnbTvflTUChnQ1gcwcSpa00BVAGrQ2pwyQI24sRYgHYSzA9X248TYokjRNrEB1cDWgV2o+VZVbqq34fcwgYzCmozNAkJkSqrybZVLoqq3V45YrInfnT5Md61tiG499OhB/hSCUKTkRyNBRKVM8zZCByAo7LcuZ6TZFxASM0yXXXnf8Aw5g7JqeHvLUZ7FCOL2EwOXdPwZWoeNqrz3TB0ACxw4SwUcnN6HCSTIAOFBl45CQkRtCMhu9PFWpPSudH/XN+jIP7sf3L/Y+dGpzq/a3b6OWyhNSi73XKlFD5pxFjPgeZT41rbTCc/wDAaHEJaVbALDeRMG+FzQEEAgOMDuODl/5zqDfKEt6vwx1oAAAAQAQB9CJQCryrMJMGxof7fevqnl6mTmUBIISJhPqm5WxZ96K7/RuVKTBzDg0ICnAVmdhKNS+hbmzBdCgowEw3rsGmjmqvEXCcBXJHFkCezPGJgstw7gavjnpWc5uOu1/H1RyQkPRn4+mRQMt3YPZY6J6MhMOyH3q+ubWKm0DzX81+Bc9WQI2E1GD2l2ig3HUnTCfwAqFGgtocfV2F40c1V4iCVIWGaM5XmxLpS4/TZmVHKqq8UCoAq2AJWu3j+f4O+pQAAACwBAfXMBnxWfM/TeBnMoNZdSomsNy/enqZnu4Q+Kk/5HOsvtUfmET4rCHoH7p+MQ1/yKG+UrZHUfuss6sqPWeXzVeZLdz4qMLYEFJxbYxqk0G9RjsoUT8C8aJ1VXiUQUSDKclOygm/ikcY/keRzoI4mdHL+2emPQi1gEdTj682Mot1e7TnO/EOPRAYDVOgatJFDCxCzQ2Gh34qAN6vt6TGYDSXJuvEmROVgO60iKASH/E5flu+hOdsHeuHz7/W7ZwhCJhKUgIgERoTkl/c04aDyzzldAytWrsMV34Bod3i2dJBgHuN2qgAAQGhxAoCc94n9a0DBjOc7v8AW9FYJcU2iWOmnj0Jeha6+e5k/wDaLKBjkcPCalfFr8AXVsArUhBEWPjHut3QOL0DnNmV8e7iCd3EWGq8v7LQMLZbun9aelNBs+9/5PpRmvhrt+h/PXg9SNKV8AXVsArT9yAZYM3MB7q7oHGSBcvQbXJK4cl8QKVahiIKF5SYDkSx76+nCjYT6uPx59O16PLn5RaffpwB0cFSr+10p2g0AsM8kIXyrugcYJtKbFo9yR3paTVCVrq81vw90YEFi7+T+OvqX0kYHQsfj02IRz0f61W6w5V945tHqZH1zIUKlHQp6EaO5uP5degcdccMA3Au0rw6I2e4yt3Nuk7UAEABsEHp3HhWHng8+roUJeqXKrRzDdg/1/VN/oqUYAo7uGgX+116ceY2ZtsxpG55XDoZS0JECWe1+q+pA7fwn8etaoIaosOzs6e44L6XqA0fTJhIiVMAGqtRfjSEKNbVfAWleP1U1bNQacNZHQlDmv4mgDABsEB6kM48q/8APXP3DAnYPw6VJ6Ws257mzr1kPQBBBgkwAGVdKtgJFkspqjPYWl+wBSUBdXAUJqEiRCwRwxTZK6xfPq7VWu1vjgFj4J21E1OVGTvYdzu3X3dc/WmkQOUbAGrW6ZWKL7jLPYWl+woFu/IiMOdQAAwW4Yrm5nEBu957VEembmBLTOZWXgUEhxRIiwS2+a49b83FOwvUvyDI9focs4AlVwBQjTm4k+eu2N/sRX8UhiJX4Z34c2fliTABdVQAzNMuxfX5hKQhiDNxf6XUwe9uEwJgUHc05VDm5H7BZ9u9D92kR7jPin7sonlSntmLg0wISEEiL71YMAQJSmWAFG2bH2Ij/wBi3xr2eGCSp8gwAF1W0VbZ2UKZdJDd0WLqagSl3VRD3PVMvSQ7cPP/AJxKRnuupAuIgiXEojTyAOciw6iDLUH2BijBI5R5D+vwjlmAJU2ANWgalMkYyNxntLy/6MVz9+oCHuRznosA7n8PFBJEuAZES4jeatUDGBo6BNOovJ9gkXZquP7zwiwUFkB0MJ1aZDNyfTGKNMvZBzidzo0tYz9asfyzxYSRLgGREuI3mgayFh3Xg0ji0yjjgkG9CMH9r+ucGoFWAqb+XgFO5eZxPrFqg5j3Ake4dTUov9Xm/wAcbM/GyIr2JyOLxpn5Vdgl8FXLZburr78EoFUAurRk9CWtwXvXncSmfRdvrXnIu63Ocl7IySfT0BDw8akkNXr4dHEO1eRxeMXO3BFn5EUAAMFuBUCrAatfvlEIa4XxleIz6fMG5qqHueqaKl/onXdfk+eOQRG406OokcsDvcZwphokMPFIDNxjZngagKsBrQka9XtVOyvJaFZ9WfE3B8yh5dUy+jya8DPxx6CIkjo1FjvBiHYXo6NJDDZ4ncTBbPgNYJcUnWoRyK6FuYUFll9cgF8yN09NSf8AozZkCETIm/8AhPYRU9kKh49BESR0adRFlTYO9q5LEiIo2TiJrQPJyM+fB66wS4r9+CRTuXmcSiyy8CW48AA1Nv8Awb3pNKoUKLImj/kciFj3z5n7Dy9OjiHavI4tERhzw87GfGkkPy9/XnBpjIOUu5OZxoqlWV4M6EQYD+DY64dETX1MMwg3ESIaj5d9hx/c/sV4SeAuFvSJyOPDlkbQk/0R9ZAogUQPsH32waAQAEAIA2OFvkRkCFkwEsnKxDSQc14VhEbiJh2o3YVRz+xO5gpYFhsugqH/ABLiDcRMjvwrgLNeab+Hq3KQDAOXYPxLSoH2GgCAAwBpw5vwiKCFnwEsvKxDRIJUArEBuNoen2OS8aVVcO6fmWkD+mXFFxEyO/CXenzr6jzy1pMh1JiAy2NqDv8AwgRAAsAWA4m4UYMIW2wW6I2CHsTWh1HH2NY/xEp5BKuovkMiEF7pqQLIkImZ4NWdI9OIAlJFlCmQpBZvcojfkqSgCwAABYDiz4U4BNbbbR0pYHIwTInzhESz9jtAZgspRLosjfNyifmSpKQLIkImZ4LkrhR6Unx+IE8hYuBIPmlypn6BloEsAABiONmoBFQW0K7ALzEjHh612JMWREQSIiKI/Y53tkSikGVKoazgKmMouSkCyJCJvwMTRGCRl6NBW+EHyuhs4mC6aQ+msMgBgAAOPGALhE5WCS8tlklUSzBkpRgmDUFtkmANvsdl8ElxlPmVHMqZUOBScJhHgHAVLhmwR+PQEhiQPlf5WL4N/KHLgD7C0sIFsdDIMW5umFER17hLe2uBkMiLR+xBXml8mR/lcvk4FJwmEfWyK6IFxlpPrbEEHjJnxIRV4ot0J1+jQHAftut2/wBjFGRhphMozC7RZKEnqitD5FYKbFrLxhJIfYszCql28wbrDkYaBhR7ZYbiIioREQRPV8gq4Jc+DKz9RLKAbi+QsSW4UUrQEzoqMrW6qqqVVVVX7MK4YG0zAkTqUHr7Nba9r5j0ULYNDGuyrEKDJNw+wtiIKCSxcYABJYIDCUJaNGs3GzcREVCIiCJ6nkFSySVNpT9KQDgaTA3rLEvcKAzRgTWjKlu3UqqlSqqr9pS+IwhkSROTReDoZ0yqw2WIxupwu4vEJdAgCVsTlFYUwpE2dTjweJFcQi5YABMEBiKGl3KIuIjcCIqEREE9PyCoxYAZ3+hOzF5FuA2BgwF3QoZhB2DKrqFRdVW79taWcIBMME5E2WOVBQXkJXYIR1bnTau7ma3Jc6CK5DyMrZNONAvK12ozWEC+AA6NCT/pFGUXDUbnpeQUYD+o/wBeRsUki+2DBpltmOggbq5si6ufuBak6dCQ+h7CUsxTBfNkfYVG+Fm6P5Gk7IZYNuwnvUm4ENR2eKWQMHgDtgYdcNsT6XDbUHkGyOPRXFhSaMdH+P8AJuiSyzYNGB3IXA0N2OGWdSV1+I+6jGKD0KJYOiidqDaSX2459qOokw6eTCaX9lEDYnk/QYoM3jIn5gmgrGwI3sSgCRE5cKPUQR+2bBjsZGsJDGDBdGGSTCIiiL9c5xpyxieVC4C5ArIjhEiKKnehrrCmyQWUNwBnD05SLMWRLgAAAB97kpKjZNGmrl+20j3p9F7I7DwpMp09hneame03Pfk9Kn8DZlaB0EZYYmnIkaLl5gT8V/JsbXaucAWz2KSWbTLzQcgcmi/pvxpPCEg3FB5jX0W24idLrAyKqAlutP4mqoxLyqAlLAGAD/4WRq1/3qCjQf25XOAznnnal5110WNJFOybX9K0lKh5DRRb3N5BtdtSJkpve11UeXnIPlUsrHyKTAnuZ+FSiMa/BGnJAxfPeyohkBUXLwN4CW0oI/8A1/f/2Q==;" vertex="1" parent="1">
          <mxGeometry x="620" y="180" width="34.48" height="45.97" as="geometry" />
        </mxCell>
      </root>
    </mxGraphModel>
  </diagram>
</mxfile>
